<mxfile host="app.diagrams.net" modified="2024-04-11T03:04:57.545Z" agent="Mozilla/5.0 (Windows NT 10.0; Win64; x64) AppleWebKit/537.36 (KHTML, like Gecko) Chrome/123.0.0.0 Safari/537.36 Edg/123.0.0.0" etag="Pl2I9m5udfArEPwubuNj" version="24.2.2" type="github" pages="8">
  <diagram name="第 1 页" id="B6jP0D5zZQtrIFKNPO1E">
    <mxGraphModel dx="1969" dy="791" grid="1" gridSize="10" guides="1" tooltips="1" connect="1" arrows="1" fold="1" page="1" pageScale="1" pageWidth="827" pageHeight="1169" math="0" shadow="0">
      <root>
        <mxCell id="0" />
        <mxCell id="1" parent="0" />
        <mxCell id="ComvDs5ICdkShnz1rPeY-17" style="edgeStyle=orthogonalEdgeStyle;rounded=0;orthogonalLoop=1;jettySize=auto;html=1;exitX=1;exitY=0.5;exitDx=0;exitDy=0;entryX=0;entryY=0.5;entryDx=0;entryDy=0;fontFamily=宋体;fontSource=https%3A%2F%2Ffonts.googleapis.com%2Fcss%3Ffamily%3D%25E5%25AE%258B%25E4%25BD%2593;fontSize=17;" parent="1" source="ComvDs5ICdkShnz1rPeY-1" target="ComvDs5ICdkShnz1rPeY-2" edge="1">
          <mxGeometry relative="1" as="geometry" />
        </mxCell>
        <mxCell id="ComvDs5ICdkShnz1rPeY-18" style="edgeStyle=orthogonalEdgeStyle;rounded=0;orthogonalLoop=1;jettySize=auto;html=1;exitX=1;exitY=0.5;exitDx=0;exitDy=0;fontFamily=宋体;fontSource=https%3A%2F%2Ffonts.googleapis.com%2Fcss%3Ffamily%3D%25E5%25AE%258B%25E4%25BD%2593;fontSize=17;" parent="1" source="ComvDs5ICdkShnz1rPeY-1" target="ComvDs5ICdkShnz1rPeY-5" edge="1">
          <mxGeometry relative="1" as="geometry" />
        </mxCell>
        <mxCell id="ComvDs5ICdkShnz1rPeY-19" style="edgeStyle=orthogonalEdgeStyle;rounded=0;orthogonalLoop=1;jettySize=auto;html=1;exitX=1;exitY=0.5;exitDx=0;exitDy=0;fontFamily=宋体;fontSource=https%3A%2F%2Ffonts.googleapis.com%2Fcss%3Ffamily%3D%25E5%25AE%258B%25E4%25BD%2593;fontSize=17;" parent="1" source="ComvDs5ICdkShnz1rPeY-1" target="ComvDs5ICdkShnz1rPeY-6" edge="1">
          <mxGeometry relative="1" as="geometry" />
        </mxCell>
        <mxCell id="ComvDs5ICdkShnz1rPeY-20" style="edgeStyle=orthogonalEdgeStyle;rounded=0;orthogonalLoop=1;jettySize=auto;html=1;exitX=1;exitY=0.5;exitDx=0;exitDy=0;entryX=0;entryY=0.5;entryDx=0;entryDy=0;fontFamily=宋体;fontSource=https%3A%2F%2Ffonts.googleapis.com%2Fcss%3Ffamily%3D%25E5%25AE%258B%25E4%25BD%2593;fontSize=17;" parent="1" source="ComvDs5ICdkShnz1rPeY-1" target="ComvDs5ICdkShnz1rPeY-7" edge="1">
          <mxGeometry relative="1" as="geometry" />
        </mxCell>
        <mxCell id="ComvDs5ICdkShnz1rPeY-1" value="程序" style="shape=ext;double=1;rounded=0;whiteSpace=wrap;html=1;fontFamily=宋体;fontSource=https%3A%2F%2Ffonts.googleapis.com%2Fcss%3Ffamily%3D%25E5%25AE%258B%25E4%25BD%2593;fontSize=17;" parent="1" vertex="1">
          <mxGeometry x="40" y="360" width="120" height="80" as="geometry" />
        </mxCell>
        <mxCell id="ComvDs5ICdkShnz1rPeY-12" style="edgeStyle=orthogonalEdgeStyle;rounded=0;orthogonalLoop=1;jettySize=auto;html=1;exitX=1;exitY=0.5;exitDx=0;exitDy=0;entryX=0;entryY=0.5;entryDx=0;entryDy=0;fontFamily=宋体;fontSource=https%3A%2F%2Ffonts.googleapis.com%2Fcss%3Ffamily%3D%25E5%25AE%258B%25E4%25BD%2593;fontSize=17;" parent="1" source="ComvDs5ICdkShnz1rPeY-2" target="ComvDs5ICdkShnz1rPeY-8" edge="1">
          <mxGeometry relative="1" as="geometry" />
        </mxCell>
        <mxCell id="ComvDs5ICdkShnz1rPeY-16" style="rounded=0;orthogonalLoop=1;jettySize=auto;html=1;exitX=1;exitY=0.5;exitDx=0;exitDy=0;entryX=0;entryY=0.5;entryDx=0;entryDy=0;fontFamily=宋体;fontSource=https%3A%2F%2Ffonts.googleapis.com%2Fcss%3Ffamily%3D%25E5%25AE%258B%25E4%25BD%2593;fontSize=17;" parent="1" source="ComvDs5ICdkShnz1rPeY-2" target="ComvDs5ICdkShnz1rPeY-9" edge="1">
          <mxGeometry relative="1" as="geometry" />
        </mxCell>
        <mxCell id="ComvDs5ICdkShnz1rPeY-2" value="（变更基本块&lt;font face=&quot;Times New Roman&quot; style=&quot;&quot;&gt;BB&lt;sub style=&quot;&quot;&gt;&lt;font style=&quot;font-size: 12px;&quot;&gt;1&lt;/font&gt;&lt;/sub&gt;&lt;/font&gt;，&lt;font face=&quot;Times New Roman&quot; style=&quot;font-size: 17px;&quot;&gt;RCF&lt;sub style=&quot;font-size: 17px;&quot;&gt;1&lt;/sub&gt;&lt;/font&gt;）" style="rounded=0;whiteSpace=wrap;html=1;fontFamily=宋体;fontSource=https%3A%2F%2Ffonts.googleapis.com%2Fcss%3Ffamily%3D%25E5%25AE%258B%25E4%25BD%2593;fontSize=17;" parent="1" vertex="1">
          <mxGeometry x="270" y="220" width="210" height="60" as="geometry" />
        </mxCell>
        <mxCell id="ComvDs5ICdkShnz1rPeY-13" style="edgeStyle=orthogonalEdgeStyle;rounded=0;orthogonalLoop=1;jettySize=auto;html=1;exitX=1;exitY=0.5;exitDx=0;exitDy=0;entryX=0;entryY=0.5;entryDx=0;entryDy=0;fontFamily=宋体;fontSource=https%3A%2F%2Ffonts.googleapis.com%2Fcss%3Ffamily%3D%25E5%25AE%258B%25E4%25BD%2593;fontSize=17;" parent="1" source="ComvDs5ICdkShnz1rPeY-5" target="ComvDs5ICdkShnz1rPeY-9" edge="1">
          <mxGeometry relative="1" as="geometry" />
        </mxCell>
        <mxCell id="ComvDs5ICdkShnz1rPeY-5" value="（变更基本块BB&lt;sub style=&quot;font-size: 17px;&quot;&gt;2&lt;/sub&gt;，RCF&lt;span style=&quot;font-size: 17px;&quot;&gt;2&lt;/span&gt;）" style="rounded=0;whiteSpace=wrap;html=1;fontFamily=宋体;fontSource=https%3A%2F%2Ffonts.googleapis.com%2Fcss%3Ffamily%3D%25E5%25AE%258B%25E4%25BD%2593;fontSize=17;" parent="1" vertex="1">
          <mxGeometry x="270" y="320" width="210" height="60" as="geometry" />
        </mxCell>
        <mxCell id="ComvDs5ICdkShnz1rPeY-14" style="edgeStyle=orthogonalEdgeStyle;rounded=0;orthogonalLoop=1;jettySize=auto;html=1;exitX=1;exitY=0.5;exitDx=0;exitDy=0;entryX=0;entryY=0.5;entryDx=0;entryDy=0;fontFamily=宋体;fontSource=https%3A%2F%2Ffonts.googleapis.com%2Fcss%3Ffamily%3D%25E5%25AE%258B%25E4%25BD%2593;fontSize=17;" parent="1" source="ComvDs5ICdkShnz1rPeY-6" target="ComvDs5ICdkShnz1rPeY-10" edge="1">
          <mxGeometry relative="1" as="geometry" />
        </mxCell>
        <mxCell id="ComvDs5ICdkShnz1rPeY-6" value="（变更基本块BB&lt;span style=&quot;font-size: 17px;&quot;&gt;3&lt;/span&gt;，RCF&lt;span style=&quot;font-size: 17px;&quot;&gt;3&lt;/span&gt;）" style="rounded=0;whiteSpace=wrap;html=1;fontFamily=宋体;fontSource=https%3A%2F%2Ffonts.googleapis.com%2Fcss%3Ffamily%3D%25E5%25AE%258B%25E4%25BD%2593;fontSize=17;" parent="1" vertex="1">
          <mxGeometry x="270" y="420" width="210" height="60" as="geometry" />
        </mxCell>
        <mxCell id="ComvDs5ICdkShnz1rPeY-15" style="edgeStyle=orthogonalEdgeStyle;rounded=0;orthogonalLoop=1;jettySize=auto;html=1;exitX=1;exitY=0.5;exitDx=0;exitDy=0;entryX=0;entryY=0.5;entryDx=0;entryDy=0;fontFamily=宋体;fontSource=https%3A%2F%2Ffonts.googleapis.com%2Fcss%3Ffamily%3D%25E5%25AE%258B%25E4%25BD%2593;fontSize=17;" parent="1" source="ComvDs5ICdkShnz1rPeY-7" target="ComvDs5ICdkShnz1rPeY-11" edge="1">
          <mxGeometry relative="1" as="geometry" />
        </mxCell>
        <mxCell id="ComvDs5ICdkShnz1rPeY-7" value="（变更基本块BB&lt;span style=&quot;font-size: 17px;&quot;&gt;n&lt;/span&gt;，RCF&lt;span style=&quot;font-size: 17px;&quot;&gt;n&lt;/span&gt;）" style="rounded=0;whiteSpace=wrap;html=1;fontFamily=宋体;fontSource=https%3A%2F%2Ffonts.googleapis.com%2Fcss%3Ffamily%3D%25E5%25AE%258B%25E4%25BD%2593;fontSize=17;" parent="1" vertex="1">
          <mxGeometry x="270" y="520" width="210" height="60" as="geometry" />
        </mxCell>
        <mxCell id="ComvDs5ICdkShnz1rPeY-8" value="（相关基本块BB&lt;sub style=&quot;font-size: 17px;&quot;&gt;1&lt;/sub&gt;，RCF&lt;sub style=&quot;font-size: 17px;&quot;&gt;1&lt;/sub&gt;）" style="rounded=0;whiteSpace=wrap;html=1;fontFamily=宋体;fontSource=https%3A%2F%2Ffonts.googleapis.com%2Fcss%3Ffamily%3D%25E5%25AE%258B%25E4%25BD%2593;fontSize=17;" parent="1" vertex="1">
          <mxGeometry x="730" y="220" width="210" height="60" as="geometry" />
        </mxCell>
        <mxCell id="ComvDs5ICdkShnz1rPeY-9" value="&lt;div style=&quot;font-size: 17px;&quot;&gt;RCF&lt;sub style=&quot;font-size: 17px;&quot;&gt;1&lt;/sub&gt;&amp;nbsp;&amp;gt;&amp;nbsp;&lt;span style=&quot;background-color: initial; font-size: 17px;&quot;&gt;RCF&lt;/span&gt;&lt;sub style=&quot;background-color: initial; font-size: 17px;&quot;&gt;2&lt;/sub&gt;&lt;br style=&quot;font-size: 17px;&quot;&gt;&lt;/div&gt;（相关基本块BB&lt;sub style=&quot;font-size: 17px;&quot;&gt;1&lt;/sub&gt;，RCF&lt;sub style=&quot;font-size: 17px;&quot;&gt;1&lt;/sub&gt;）" style="rounded=0;whiteSpace=wrap;html=1;fontFamily=宋体;fontSource=https%3A%2F%2Ffonts.googleapis.com%2Fcss%3Ffamily%3D%25E5%25AE%258B%25E4%25BD%2593;fontSize=17;" parent="1" vertex="1">
          <mxGeometry x="730" y="320" width="210" height="60" as="geometry" />
        </mxCell>
        <mxCell id="ComvDs5ICdkShnz1rPeY-10" value="（相关基本块BB&lt;sub style=&quot;font-size: 17px;&quot;&gt;1&lt;/sub&gt;，RCF&lt;sub style=&quot;font-size: 17px;&quot;&gt;1&lt;/sub&gt;）" style="rounded=0;whiteSpace=wrap;html=1;fontFamily=宋体;fontSource=https%3A%2F%2Ffonts.googleapis.com%2Fcss%3Ffamily%3D%25E5%25AE%258B%25E4%25BD%2593;fontSize=17;" parent="1" vertex="1">
          <mxGeometry x="730" y="420" width="210" height="60" as="geometry" />
        </mxCell>
        <mxCell id="ComvDs5ICdkShnz1rPeY-11" value="（相关基本块BB&lt;sub style=&quot;font-size: 17px;&quot;&gt;1&lt;/sub&gt;，RCF&lt;sub style=&quot;font-size: 17px;&quot;&gt;1&lt;/sub&gt;）" style="rounded=0;whiteSpace=wrap;html=1;fontFamily=宋体;fontSource=https%3A%2F%2Ffonts.googleapis.com%2Fcss%3Ffamily%3D%25E5%25AE%258B%25E4%25BD%2593;fontSize=17;" parent="1" vertex="1">
          <mxGeometry x="730" y="520" width="210" height="60" as="geometry" />
        </mxCell>
      </root>
    </mxGraphModel>
  </diagram>
  <diagram id="bBem0twllgWnsjvBkQGx" name="第 2 页">
    <mxGraphModel dx="1212" dy="725" grid="1" gridSize="10" guides="1" tooltips="1" connect="1" arrows="1" fold="1" page="1" pageScale="1" pageWidth="827" pageHeight="1169" math="0" shadow="0">
      <root>
        <mxCell id="0" />
        <mxCell id="1" parent="0" />
        <mxCell id="WN6i3_d64wubtUkj5ZTo-5" style="edgeStyle=orthogonalEdgeStyle;rounded=0;orthogonalLoop=1;jettySize=auto;html=1;exitX=1;exitY=0.5;exitDx=0;exitDy=0;entryX=0;entryY=0.25;entryDx=0;entryDy=0;" edge="1" parent="1" source="WN6i3_d64wubtUkj5ZTo-2" target="WN6i3_d64wubtUkj5ZTo-3">
          <mxGeometry relative="1" as="geometry" />
        </mxCell>
        <mxCell id="WN6i3_d64wubtUkj5ZTo-2" value="&lt;div&gt;全局变量A&lt;/div&gt;&lt;div&gt;&lt;br&gt;&lt;/div&gt;functionA(){&lt;div&gt;&lt;br&gt;&lt;/div&gt;&lt;div&gt;变量声明arg1；&lt;/div&gt;&lt;div&gt;变量声明agr2；&lt;/div&gt;&lt;div&gt;&lt;br&gt;&lt;/div&gt;&lt;div&gt;functionB(arg1,agr2);&lt;/div&gt;&lt;div&gt;&lt;br&gt;&lt;/div&gt;&lt;div&gt;&lt;br&gt;&lt;/div&gt;&lt;div&gt;&lt;br&gt;&lt;/div&gt;&lt;div&gt;&lt;br&gt;&lt;/div&gt;&lt;div&gt;&lt;br&gt;&lt;/div&gt;&lt;div&gt;&lt;br&gt;&lt;/div&gt;&lt;div&gt;}&lt;/div&gt;" style="rounded=0;whiteSpace=wrap;html=1;align=left;" vertex="1" parent="1">
          <mxGeometry x="60" y="180" width="120" height="250" as="geometry" />
        </mxCell>
        <mxCell id="WN6i3_d64wubtUkj5ZTo-3" value="functionB(arg1,agr2){&lt;div&gt;&lt;br&gt;&lt;/div&gt;&lt;div&gt;functionC();&lt;/div&gt;&lt;div&gt;&lt;br&gt;&lt;/div&gt;&lt;div&gt;&lt;br&gt;&lt;/div&gt;&lt;div&gt;&lt;br&gt;&lt;/div&gt;&lt;div&gt;&lt;br&gt;&lt;/div&gt;&lt;div&gt;&lt;br&gt;&lt;/div&gt;&lt;div&gt;&lt;br&gt;&lt;/div&gt;&lt;div&gt;}&lt;/div&gt;" style="rounded=0;whiteSpace=wrap;html=1;align=left;" vertex="1" parent="1">
          <mxGeometry x="270" y="180" width="120" height="250" as="geometry" />
        </mxCell>
      </root>
    </mxGraphModel>
  </diagram>
  <diagram id="RpIUN4Mws4F_1KChG36k" name="第 3 页">
    <mxGraphModel dx="1969" dy="791" grid="1" gridSize="10" guides="1" tooltips="1" connect="1" arrows="1" fold="1" page="1" pageScale="1" pageWidth="827" pageHeight="1169" math="0" shadow="0">
      <root>
        <mxCell id="0" />
        <mxCell id="1" parent="0" />
        <mxCell id="E8u6_rnoCMhcXNrwGiHt-36" style="edgeStyle=orthogonalEdgeStyle;rounded=0;orthogonalLoop=1;jettySize=auto;html=1;exitX=1;exitY=0.5;exitDx=0;exitDy=0;exitPerimeter=0;entryX=0;entryY=0.5;entryDx=0;entryDy=0;strokeWidth=1;fontSize=19;" parent="1" source="HxMYI7Jndmwjsz-dfFCK-9" target="E8u6_rnoCMhcXNrwGiHt-18" edge="1">
          <mxGeometry relative="1" as="geometry" />
        </mxCell>
        <mxCell id="HxMYI7Jndmwjsz-dfFCK-9" value="&lt;font face=&quot;黑体&quot; style=&quot;font-size: 19px;&quot;&gt;开始&lt;/font&gt;" style="html=1;dashed=0;whiteSpace=wrap;shape=mxgraph.dfd.start;strokeWidth=1;fontSize=19;" parent="1" vertex="1">
          <mxGeometry x="420" y="241" width="120" height="50" as="geometry" />
        </mxCell>
        <mxCell id="E8u6_rnoCMhcXNrwGiHt-64" style="edgeStyle=orthogonalEdgeStyle;rounded=0;orthogonalLoop=1;jettySize=auto;html=1;exitX=0.5;exitY=0;exitDx=0;exitDy=0;entryX=0.5;entryY=1;entryDx=0;entryDy=0;strokeWidth=1;fontSize=19;" parent="1" source="E8u6_rnoCMhcXNrwGiHt-2" target="E8u6_rnoCMhcXNrwGiHt-8" edge="1">
          <mxGeometry relative="1" as="geometry" />
        </mxCell>
        <mxCell id="E8u6_rnoCMhcXNrwGiHt-2" value="软件历史漏洞&lt;div style=&quot;font-size: 19px;&quot;&gt;&lt;font face=&quot;Times New Roman&quot;&gt;POC&lt;/font&gt;&lt;/div&gt;" style="rounded=0;whiteSpace=wrap;html=1;strokeWidth=1;fontSize=19;fontFamily=黑体;" parent="1" vertex="1">
          <mxGeometry x="1320" y="500" width="120" height="50" as="geometry" />
        </mxCell>
        <mxCell id="E8u6_rnoCMhcXNrwGiHt-39" style="edgeStyle=orthogonalEdgeStyle;rounded=0;orthogonalLoop=1;jettySize=auto;html=1;exitX=0.5;exitY=1;exitDx=0;exitDy=0;entryX=0.5;entryY=0;entryDx=0;entryDy=0;strokeWidth=1;fontSize=19;" parent="1" source="E8u6_rnoCMhcXNrwGiHt-4" target="E8u6_rnoCMhcXNrwGiHt-18" edge="1">
          <mxGeometry relative="1" as="geometry" />
        </mxCell>
        <mxCell id="E8u6_rnoCMhcXNrwGiHt-4" value="原始程序" style="rounded=0;whiteSpace=wrap;html=1;strokeWidth=1;fontSize=19;fontFamily=黑体;" parent="1" vertex="1">
          <mxGeometry x="600" y="151" width="120" height="50" as="geometry" />
        </mxCell>
        <mxCell id="E8u6_rnoCMhcXNrwGiHt-43" style="edgeStyle=orthogonalEdgeStyle;rounded=0;orthogonalLoop=1;jettySize=auto;html=1;exitX=1;exitY=0.5;exitDx=0;exitDy=0;entryX=0;entryY=0.5;entryDx=0;entryDy=0;strokeWidth=1;fontSize=19;" parent="1" source="E8u6_rnoCMhcXNrwGiHt-6" target="E8u6_rnoCMhcXNrwGiHt-20" edge="1">
          <mxGeometry relative="1" as="geometry" />
        </mxCell>
        <mxCell id="E8u6_rnoCMhcXNrwGiHt-6" value="多字节&lt;div style=&quot;font-size: 19px;&quot;&gt;污点推断&lt;/div&gt;" style="rounded=0;whiteSpace=wrap;html=1;strokeWidth=1;fontSize=19;fontFamily=黑体;" parent="1" vertex="1">
          <mxGeometry x="1140" y="241" width="120" height="50" as="geometry" />
        </mxCell>
        <mxCell id="E8u6_rnoCMhcXNrwGiHt-46" style="edgeStyle=orthogonalEdgeStyle;rounded=0;orthogonalLoop=1;jettySize=auto;html=1;exitX=0;exitY=0.5;exitDx=0;exitDy=0;entryX=1;entryY=0.5;entryDx=0;entryDy=0;strokeWidth=1;fontSize=19;" parent="1" source="E8u6_rnoCMhcXNrwGiHt-8" target="E8u6_rnoCMhcXNrwGiHt-34" edge="1">
          <mxGeometry relative="1" as="geometry" />
        </mxCell>
        <mxCell id="E8u6_rnoCMhcXNrwGiHt-65" style="edgeStyle=orthogonalEdgeStyle;rounded=0;orthogonalLoop=1;jettySize=auto;html=1;exitX=1;exitY=0.5;exitDx=0;exitDy=0;entryX=0.5;entryY=0;entryDx=0;entryDy=0;strokeWidth=1;fontSize=19;" parent="1" source="E8u6_rnoCMhcXNrwGiHt-8" target="E8u6_rnoCMhcXNrwGiHt-31" edge="1">
          <mxGeometry relative="1" as="geometry">
            <Array as="points">
              <mxPoint x="1460" y="435" />
              <mxPoint x="1460" y="180" />
              <mxPoint x="840" y="180" />
            </Array>
          </mxGeometry>
        </mxCell>
        <mxCell id="E8u6_rnoCMhcXNrwGiHt-8" value="测试用例生成" style="rounded=0;whiteSpace=wrap;html=1;strokeWidth=1;fontSize=19;fontFamily=黑体;" parent="1" vertex="1">
          <mxGeometry x="1320" y="410" width="120" height="50" as="geometry" />
        </mxCell>
        <mxCell id="E8u6_rnoCMhcXNrwGiHt-50" style="edgeStyle=orthogonalEdgeStyle;rounded=0;orthogonalLoop=1;jettySize=auto;html=1;exitX=0;exitY=0.5;exitDx=0;exitDy=0;strokeWidth=1;fontSize=19;" parent="1" source="E8u6_rnoCMhcXNrwGiHt-9" target="E8u6_rnoCMhcXNrwGiHt-11" edge="1">
          <mxGeometry relative="1" as="geometry" />
        </mxCell>
        <mxCell id="E8u6_rnoCMhcXNrwGiHt-9" value="崩溃&lt;div style=&quot;font-size: 19px;&quot;&gt;测试用例集&lt;/div&gt;" style="rounded=0;whiteSpace=wrap;html=1;strokeWidth=1;fontSize=19;fontFamily=黑体;" parent="1" vertex="1">
          <mxGeometry x="960" y="490" width="120" height="50" as="geometry" />
        </mxCell>
        <mxCell id="E8u6_rnoCMhcXNrwGiHt-53" style="edgeStyle=orthogonalEdgeStyle;rounded=0;orthogonalLoop=1;jettySize=auto;html=1;exitX=0;exitY=0.5;exitDx=0;exitDy=0;entryX=1;entryY=0.5;entryDx=0;entryDy=0;strokeWidth=1;fontSize=19;" parent="1" source="E8u6_rnoCMhcXNrwGiHt-11" target="E8u6_rnoCMhcXNrwGiHt-25" edge="1">
          <mxGeometry relative="1" as="geometry" />
        </mxCell>
        <mxCell id="E8u6_rnoCMhcXNrwGiHt-11" value="崩溃路径" style="rounded=0;whiteSpace=wrap;html=1;strokeWidth=1;fontSize=19;fontFamily=黑体;" parent="1" vertex="1">
          <mxGeometry x="780" y="490" width="120" height="50" as="geometry" />
        </mxCell>
        <mxCell id="E8u6_rnoCMhcXNrwGiHt-51" style="edgeStyle=orthogonalEdgeStyle;rounded=0;orthogonalLoop=1;jettySize=auto;html=1;exitX=0;exitY=0.5;exitDx=0;exitDy=0;entryX=1;entryY=0.5;entryDx=0;entryDy=0;strokeWidth=1;fontSize=19;" parent="1" source="E8u6_rnoCMhcXNrwGiHt-12" target="E8u6_rnoCMhcXNrwGiHt-25" edge="1">
          <mxGeometry relative="1" as="geometry" />
        </mxCell>
        <mxCell id="E8u6_rnoCMhcXNrwGiHt-12" value="非崩溃路径" style="rounded=0;whiteSpace=wrap;html=1;strokeWidth=1;fontSize=19;fontFamily=黑体;" parent="1" vertex="1">
          <mxGeometry x="780" y="330" width="120" height="50" as="geometry" />
        </mxCell>
        <mxCell id="E8u6_rnoCMhcXNrwGiHt-13" value="历史漏洞&lt;div style=&quot;font-size: 19px;&quot;&gt;目标点&lt;/div&gt;" style="rounded=0;whiteSpace=wrap;html=1;strokeWidth=1;fontSize=19;fontFamily=黑体;" parent="1" vertex="1">
          <mxGeometry x="780" y="580" width="120" height="50" as="geometry" />
        </mxCell>
        <mxCell id="E8u6_rnoCMhcXNrwGiHt-40" style="edgeStyle=orthogonalEdgeStyle;rounded=0;orthogonalLoop=1;jettySize=auto;html=1;exitX=1;exitY=0.5;exitDx=0;exitDy=0;entryX=0;entryY=0.5;entryDx=0;entryDy=0;strokeWidth=1;fontSize=19;" parent="1" source="E8u6_rnoCMhcXNrwGiHt-18" target="E8u6_rnoCMhcXNrwGiHt-31" edge="1">
          <mxGeometry relative="1" as="geometry" />
        </mxCell>
        <mxCell id="E8u6_rnoCMhcXNrwGiHt-18" value="信息插桩" style="rounded=0;whiteSpace=wrap;html=1;strokeWidth=1;fontSize=19;fontFamily=黑体;" parent="1" vertex="1">
          <mxGeometry x="600" y="241" width="120" height="50" as="geometry" />
        </mxCell>
        <mxCell id="E8u6_rnoCMhcXNrwGiHt-44" style="edgeStyle=orthogonalEdgeStyle;rounded=0;orthogonalLoop=1;jettySize=auto;html=1;exitX=0.5;exitY=1;exitDx=0;exitDy=0;strokeWidth=1;entryX=0.5;entryY=0;entryDx=0;entryDy=0;fontSize=19;" parent="1" source="E8u6_rnoCMhcXNrwGiHt-20" target="E8u6_rnoCMhcXNrwGiHt-8" edge="1">
          <mxGeometry relative="1" as="geometry">
            <mxPoint x="1390" y="360" as="targetPoint" />
          </mxGeometry>
        </mxCell>
        <mxCell id="E8u6_rnoCMhcXNrwGiHt-20" value="崩溃路径&lt;div style=&quot;font-size: 19px;&quot;&gt;关键字节识别&lt;/div&gt;" style="rounded=0;whiteSpace=wrap;html=1;strokeWidth=1;fontSize=19;fontFamily=黑体;" parent="1" vertex="1">
          <mxGeometry x="1320" y="241" width="120" height="50" as="geometry" />
        </mxCell>
        <mxCell id="E8u6_rnoCMhcXNrwGiHt-49" style="edgeStyle=orthogonalEdgeStyle;rounded=0;orthogonalLoop=1;jettySize=auto;html=1;exitX=0;exitY=0.5;exitDx=0;exitDy=0;strokeWidth=1;fontSize=19;" parent="1" source="E8u6_rnoCMhcXNrwGiHt-23" target="E8u6_rnoCMhcXNrwGiHt-12" edge="1">
          <mxGeometry relative="1" as="geometry" />
        </mxCell>
        <mxCell id="E8u6_rnoCMhcXNrwGiHt-23" value="非崩溃&lt;div style=&quot;font-size: 19px;&quot;&gt;测试用例集&lt;/div&gt;" style="rounded=0;whiteSpace=wrap;html=1;strokeWidth=1;fontSize=19;fontFamily=黑体;" parent="1" vertex="1">
          <mxGeometry x="960" y="330" width="120" height="50" as="geometry" />
        </mxCell>
        <mxCell id="E8u6_rnoCMhcXNrwGiHt-54" style="edgeStyle=orthogonalEdgeStyle;rounded=0;orthogonalLoop=1;jettySize=auto;html=1;exitX=0;exitY=0.5;exitDx=0;exitDy=0;entryX=1;entryY=0.5;entryDx=0;entryDy=0;strokeWidth=1;fontSize=19;" parent="1" source="E8u6_rnoCMhcXNrwGiHt-25" target="E8u6_rnoCMhcXNrwGiHt-26" edge="1">
          <mxGeometry relative="1" as="geometry" />
        </mxCell>
        <mxCell id="E8u6_rnoCMhcXNrwGiHt-25" value="漏洞相关性&lt;div style=&quot;font-size: 19px;&quot;&gt;评分&lt;/div&gt;" style="rounded=0;whiteSpace=wrap;html=1;strokeWidth=1;fontSize=19;fontFamily=黑体;" parent="1" vertex="1">
          <mxGeometry x="600" y="410" width="120" height="50" as="geometry" />
        </mxCell>
        <mxCell id="E8u6_rnoCMhcXNrwGiHt-55" style="edgeStyle=orthogonalEdgeStyle;rounded=0;orthogonalLoop=1;jettySize=auto;html=1;exitX=0.5;exitY=1;exitDx=0;exitDy=0;entryX=0.5;entryY=0;entryDx=0;entryDy=0;strokeWidth=1;fontSize=19;" parent="1" source="E8u6_rnoCMhcXNrwGiHt-26" target="E8u6_rnoCMhcXNrwGiHt-27" edge="1">
          <mxGeometry relative="1" as="geometry" />
        </mxCell>
        <mxCell id="E8u6_rnoCMhcXNrwGiHt-26" value="历史漏洞&lt;div style=&quot;font-size: 19px;&quot;&gt;相关代码&lt;/div&gt;" style="rounded=0;whiteSpace=wrap;html=1;strokeWidth=1;fontSize=19;fontFamily=黑体;" parent="1" vertex="1">
          <mxGeometry x="420" y="410" width="120" height="50" as="geometry" />
        </mxCell>
        <mxCell id="E8u6_rnoCMhcXNrwGiHt-56" style="edgeStyle=orthogonalEdgeStyle;rounded=0;orthogonalLoop=1;jettySize=auto;html=1;exitX=1;exitY=0.5;exitDx=0;exitDy=0;entryX=0;entryY=0.5;entryDx=0;entryDy=0;strokeWidth=1;fontSize=19;" parent="1" source="E8u6_rnoCMhcXNrwGiHt-27" target="E8u6_rnoCMhcXNrwGiHt-13" edge="1">
          <mxGeometry relative="1" as="geometry" />
        </mxCell>
        <mxCell id="E8u6_rnoCMhcXNrwGiHt-27" value="语法树剪辑&lt;br style=&quot;font-size: 19px;&quot;&gt;代码对齐" style="rounded=0;whiteSpace=wrap;html=1;strokeWidth=1;fontSize=19;fontFamily=黑体;" parent="1" vertex="1">
          <mxGeometry x="420" y="580" width="120" height="50" as="geometry" />
        </mxCell>
        <mxCell id="E8u6_rnoCMhcXNrwGiHt-41" style="edgeStyle=orthogonalEdgeStyle;rounded=0;orthogonalLoop=1;jettySize=auto;html=1;exitX=1;exitY=0.5;exitDx=0;exitDy=0;entryX=0;entryY=0.5;entryDx=0;entryDy=0;strokeWidth=1;fontSize=19;" parent="1" source="E8u6_rnoCMhcXNrwGiHt-31" target="E8u6_rnoCMhcXNrwGiHt-32" edge="1">
          <mxGeometry relative="1" as="geometry" />
        </mxCell>
        <mxCell id="E8u6_rnoCMhcXNrwGiHt-31" value="插桩后程序" style="rounded=0;whiteSpace=wrap;html=1;strokeWidth=1;fontSize=19;fontFamily=黑体;" parent="1" vertex="1">
          <mxGeometry x="780" y="241" width="120" height="50" as="geometry" />
        </mxCell>
        <mxCell id="E8u6_rnoCMhcXNrwGiHt-42" style="edgeStyle=orthogonalEdgeStyle;rounded=0;orthogonalLoop=1;jettySize=auto;html=1;exitX=1;exitY=0.5;exitDx=0;exitDy=0;entryX=0;entryY=0.5;entryDx=0;entryDy=0;strokeWidth=1;fontSize=19;" parent="1" source="E8u6_rnoCMhcXNrwGiHt-32" target="E8u6_rnoCMhcXNrwGiHt-6" edge="1">
          <mxGeometry relative="1" as="geometry" />
        </mxCell>
        <mxCell id="E8u6_rnoCMhcXNrwGiHt-32" value="执行路径&lt;div style=&quot;font-size: 19px;&quot;&gt;跟踪&lt;/div&gt;" style="rounded=0;whiteSpace=wrap;html=1;strokeWidth=1;fontSize=19;fontFamily=黑体;" parent="1" vertex="1">
          <mxGeometry x="960" y="241" width="120" height="50" as="geometry" />
        </mxCell>
        <mxCell id="E8u6_rnoCMhcXNrwGiHt-47" style="edgeStyle=orthogonalEdgeStyle;rounded=0;orthogonalLoop=1;jettySize=auto;html=1;exitX=0.5;exitY=0;exitDx=0;exitDy=0;entryX=1;entryY=0.5;entryDx=0;entryDy=0;strokeWidth=1;fontSize=19;" parent="1" source="E8u6_rnoCMhcXNrwGiHt-34" target="E8u6_rnoCMhcXNrwGiHt-23" edge="1">
          <mxGeometry relative="1" as="geometry" />
        </mxCell>
        <mxCell id="nH3xDwrCQIPZsLVBuxez-1" value="False" style="edgeLabel;html=1;align=center;verticalAlign=middle;resizable=0;points=[];fontFamily=Times New Roman;fontSize=19;" parent="E8u6_rnoCMhcXNrwGiHt-47" vertex="1" connectable="0">
          <mxGeometry x="-0.179" y="-2" relative="1" as="geometry">
            <mxPoint as="offset" />
          </mxGeometry>
        </mxCell>
        <mxCell id="E8u6_rnoCMhcXNrwGiHt-48" style="edgeStyle=orthogonalEdgeStyle;rounded=0;orthogonalLoop=1;jettySize=auto;html=1;exitX=0.5;exitY=1;exitDx=0;exitDy=0;entryX=1;entryY=0.5;entryDx=0;entryDy=0;strokeWidth=1;fontSize=19;" parent="1" source="E8u6_rnoCMhcXNrwGiHt-34" target="E8u6_rnoCMhcXNrwGiHt-9" edge="1">
          <mxGeometry relative="1" as="geometry" />
        </mxCell>
        <mxCell id="nH3xDwrCQIPZsLVBuxez-2" value="True" style="edgeLabel;html=1;align=center;verticalAlign=middle;resizable=0;points=[];fontFamily=Times New Roman;fontSize=19;" parent="E8u6_rnoCMhcXNrwGiHt-48" vertex="1" connectable="0">
          <mxGeometry x="-0.136" y="-4" relative="1" as="geometry">
            <mxPoint as="offset" />
          </mxGeometry>
        </mxCell>
        <mxCell id="E8u6_rnoCMhcXNrwGiHt-34" value="&lt;font style=&quot;font-size: 19px;&quot; face=&quot;黑体&quot;&gt;是否导致&lt;/font&gt;&lt;div style=&quot;font-size: 19px;&quot;&gt;&lt;font style=&quot;font-size: 19px;&quot; face=&quot;黑体&quot;&gt;目标&lt;/font&gt;&lt;span style=&quot;font-size: 19px; font-family: kx9Tzttf-rvyH-Oxj1jQ; background-color: initial;&quot;&gt;崩溃&lt;/span&gt;&lt;/div&gt;" style="shape=rhombus;html=1;dashed=0;whiteSpace=wrap;perimeter=rhombusPerimeter;strokeWidth=1;fontSize=19;" parent="1" vertex="1">
          <mxGeometry x="1130" y="390" width="140" height="90" as="geometry" />
        </mxCell>
        <mxCell id="E8u6_rnoCMhcXNrwGiHt-35" value="&lt;font face=&quot;黑体&quot; style=&quot;font-size: 19px;&quot;&gt;结束&lt;/font&gt;" style="html=1;dashed=0;whiteSpace=wrap;shape=mxgraph.dfd.start;strokeWidth=1;fontSize=19;" parent="1" vertex="1">
          <mxGeometry x="1320" y="580" width="120" height="50" as="geometry" />
        </mxCell>
        <mxCell id="E8u6_rnoCMhcXNrwGiHt-57" style="edgeStyle=orthogonalEdgeStyle;rounded=0;orthogonalLoop=1;jettySize=auto;html=1;exitX=1;exitY=0.5;exitDx=0;exitDy=0;entryX=0;entryY=0.5;entryDx=0;entryDy=0;entryPerimeter=0;strokeWidth=1;fontSize=19;" parent="1" source="E8u6_rnoCMhcXNrwGiHt-13" target="E8u6_rnoCMhcXNrwGiHt-35" edge="1">
          <mxGeometry relative="1" as="geometry" />
        </mxCell>
      </root>
    </mxGraphModel>
  </diagram>
  <diagram id="Cp9TgLTnl3L5NklUX64P" name="第 4 页">
    <mxGraphModel dx="1969" dy="791" grid="1" gridSize="10" guides="1" tooltips="1" connect="1" arrows="1" fold="1" page="1" pageScale="1" pageWidth="827" pageHeight="1169" math="0" shadow="0">
      <root>
        <mxCell id="0" />
        <mxCell id="1" parent="0" />
        <mxCell id="Ejc2cMOGs7tgZ-XoJutb-4" style="edgeStyle=orthogonalEdgeStyle;rounded=0;orthogonalLoop=1;jettySize=auto;html=1;exitX=1;exitY=0.5;exitDx=0;exitDy=0;entryX=0;entryY=0.5;entryDx=0;entryDy=0;strokeWidth=1;fontSize=19;" parent="1" source="EzfmUavuCRYGUbU9x6Dq-1" target="EzfmUavuCRYGUbU9x6Dq-2" edge="1">
          <mxGeometry relative="1" as="geometry" />
        </mxCell>
        <mxCell id="EzfmUavuCRYGUbU9x6Dq-1" value="变更点识别" style="rounded=0;whiteSpace=wrap;html=1;strokeWidth=1;fontSize=19;fontFamily=黑体;" parent="1" vertex="1">
          <mxGeometry x="240" y="240" width="120" height="50" as="geometry" />
        </mxCell>
        <mxCell id="Ejc2cMOGs7tgZ-XoJutb-9" style="edgeStyle=orthogonalEdgeStyle;rounded=0;orthogonalLoop=1;jettySize=auto;html=1;exitX=1;exitY=0.5;exitDx=0;exitDy=0;entryX=0.5;entryY=0;entryDx=0;entryDy=0;strokeWidth=1;fontSize=19;" parent="1" source="EzfmUavuCRYGUbU9x6Dq-2" target="27pTGkWvZFJK1qO2_A2Y-2" edge="1">
          <mxGeometry relative="1" as="geometry" />
        </mxCell>
        <mxCell id="EzfmUavuCRYGUbU9x6Dq-2" value="&lt;div style=&quot;font-size: 19px;&quot;&gt;控制流数据流&lt;/div&gt;变更传播" style="rounded=0;whiteSpace=wrap;html=1;strokeWidth=1;fontSize=19;fontFamily=黑体;" parent="1" vertex="1">
          <mxGeometry x="400" y="240" width="120" height="50" as="geometry" />
        </mxCell>
        <mxCell id="Ejc2cMOGs7tgZ-XoJutb-2" style="edgeStyle=orthogonalEdgeStyle;rounded=0;orthogonalLoop=1;jettySize=auto;html=1;exitX=1;exitY=0.5;exitDx=0;exitDy=0;exitPerimeter=0;entryX=0;entryY=0.5;entryDx=0;entryDy=0;strokeWidth=1;fontSize=19;" parent="1" source="27pTGkWvZFJK1qO2_A2Y-1" target="EzfmUavuCRYGUbU9x6Dq-1" edge="1">
          <mxGeometry relative="1" as="geometry" />
        </mxCell>
        <mxCell id="27pTGkWvZFJK1qO2_A2Y-1" value="&lt;font face=&quot;黑体&quot; style=&quot;font-size: 19px;&quot;&gt;开始&lt;/font&gt;" style="html=1;dashed=0;whiteSpace=wrap;shape=mxgraph.dfd.start;strokeWidth=1;fontSize=19;" parent="1" vertex="1">
          <mxGeometry x="70" y="240" width="120" height="50" as="geometry" />
        </mxCell>
        <mxCell id="Ejc2cMOGs7tgZ-XoJutb-10" style="edgeStyle=orthogonalEdgeStyle;rounded=0;orthogonalLoop=1;jettySize=auto;html=1;exitX=0;exitY=0.5;exitDx=0;exitDy=0;entryX=1;entryY=0.5;entryDx=0;entryDy=0;strokeWidth=1;fontSize=19;" parent="1" source="27pTGkWvZFJK1qO2_A2Y-2" target="27pTGkWvZFJK1qO2_A2Y-4" edge="1">
          <mxGeometry relative="1" as="geometry" />
        </mxCell>
        <mxCell id="Ejc2cMOGs7tgZ-XoJutb-11" style="edgeStyle=orthogonalEdgeStyle;rounded=0;orthogonalLoop=1;jettySize=auto;html=1;exitX=0;exitY=0.5;exitDx=0;exitDy=0;entryX=1;entryY=0.5;entryDx=0;entryDy=0;strokeWidth=1;fontSize=19;" parent="1" source="27pTGkWvZFJK1qO2_A2Y-2" target="27pTGkWvZFJK1qO2_A2Y-5" edge="1">
          <mxGeometry relative="1" as="geometry" />
        </mxCell>
        <mxCell id="27pTGkWvZFJK1qO2_A2Y-2" value="&lt;font style=&quot;font-size: 19px;&quot; face=&quot;黑体&quot;&gt;变更代码集&lt;/font&gt;" style="shape=parallelogram;perimeter=parallelogramPerimeter;whiteSpace=wrap;html=1;dashed=0;strokeWidth=1;fontSize=19;" parent="1" vertex="1">
          <mxGeometry x="580" y="410" width="140" height="50" as="geometry" />
        </mxCell>
        <mxCell id="Ejc2cMOGs7tgZ-XoJutb-12" style="edgeStyle=orthogonalEdgeStyle;rounded=0;orthogonalLoop=1;jettySize=auto;html=1;exitX=0;exitY=0.5;exitDx=0;exitDy=0;entryX=1;entryY=0.5;entryDx=0;entryDy=0;strokeWidth=1;fontSize=19;" parent="1" source="27pTGkWvZFJK1qO2_A2Y-4" target="27pTGkWvZFJK1qO2_A2Y-7" edge="1">
          <mxGeometry relative="1" as="geometry" />
        </mxCell>
        <mxCell id="27pTGkWvZFJK1qO2_A2Y-4" value="更新时间分析" style="rounded=0;whiteSpace=wrap;html=1;strokeWidth=1;fontSize=19;fontFamily=黑体;" parent="1" vertex="1">
          <mxGeometry x="400" y="350" width="120" height="50" as="geometry" />
        </mxCell>
        <mxCell id="Ejc2cMOGs7tgZ-XoJutb-13" style="edgeStyle=orthogonalEdgeStyle;rounded=0;orthogonalLoop=1;jettySize=auto;html=1;exitX=0;exitY=0.5;exitDx=0;exitDy=0;entryX=1;entryY=0.5;entryDx=0;entryDy=0;strokeWidth=1;fontSize=19;" parent="1" source="27pTGkWvZFJK1qO2_A2Y-5" target="27pTGkWvZFJK1qO2_A2Y-7" edge="1">
          <mxGeometry relative="1" as="geometry" />
        </mxCell>
        <mxCell id="27pTGkWvZFJK1qO2_A2Y-5" value="更新频率分析" style="rounded=0;whiteSpace=wrap;html=1;strokeWidth=1;fontSize=19;fontFamily=黑体;" parent="1" vertex="1">
          <mxGeometry x="400" y="480" width="120" height="50" as="geometry" />
        </mxCell>
        <mxCell id="27pTGkWvZFJK1qO2_A2Y-6" value="&lt;font face=&quot;黑体&quot; style=&quot;font-size: 19px;&quot;&gt;结束&lt;/font&gt;" style="html=1;dashed=0;whiteSpace=wrap;shape=mxgraph.dfd.start;strokeWidth=1;fontSize=19;" parent="1" vertex="1">
          <mxGeometry x="70" y="410" width="120" height="50" as="geometry" />
        </mxCell>
        <mxCell id="27pTGkWvZFJK1qO2_A2Y-7" value="更新代码&lt;div style=&quot;font-size: 19px;&quot;&gt;更新度量&lt;/div&gt;" style="rounded=0;whiteSpace=wrap;html=1;strokeWidth=1;fontSize=19;fontFamily=黑体;" parent="1" vertex="1">
          <mxGeometry x="240" y="410" width="120" height="50" as="geometry" />
        </mxCell>
        <mxCell id="Ejc2cMOGs7tgZ-XoJutb-3" style="edgeStyle=orthogonalEdgeStyle;rounded=0;orthogonalLoop=1;jettySize=auto;html=1;exitX=0.5;exitY=1;exitDx=0;exitDy=0;entryX=0.5;entryY=0;entryDx=0;entryDy=0;strokeWidth=1;fontSize=19;" parent="1" source="fI7_Qn2FNeHeMdj7p_ho-5" target="EzfmUavuCRYGUbU9x6Dq-1" edge="1">
          <mxGeometry relative="1" as="geometry" />
        </mxCell>
        <mxCell id="fI7_Qn2FNeHeMdj7p_ho-5" value="软件版本控制" style="rounded=0;whiteSpace=wrap;html=1;strokeWidth=1;fontSize=19;fontFamily=黑体;" parent="1" vertex="1">
          <mxGeometry x="240" y="150" width="120" height="50" as="geometry" />
        </mxCell>
        <mxCell id="Ejc2cMOGs7tgZ-XoJutb-14" style="edgeStyle=orthogonalEdgeStyle;rounded=0;orthogonalLoop=1;jettySize=auto;html=1;exitX=0;exitY=0.5;exitDx=0;exitDy=0;entryX=1;entryY=0.5;entryDx=0;entryDy=0;entryPerimeter=0;strokeWidth=1;fontSize=19;" parent="1" source="27pTGkWvZFJK1qO2_A2Y-7" target="27pTGkWvZFJK1qO2_A2Y-6" edge="1">
          <mxGeometry relative="1" as="geometry" />
        </mxCell>
      </root>
    </mxGraphModel>
  </diagram>
  <diagram id="B2tvqeYMki5TjmYFc9kb" name="第 5 页">
    <mxGraphModel dx="1969" dy="791" grid="1" gridSize="10" guides="1" tooltips="1" connect="1" arrows="1" fold="1" page="1" pageScale="1" pageWidth="827" pageHeight="1169" math="0" shadow="0">
      <root>
        <mxCell id="0" />
        <mxCell id="1" parent="0" />
        <mxCell id="aMHO8R0auKOJSFqjAV-H-34" style="edgeStyle=orthogonalEdgeStyle;rounded=0;orthogonalLoop=1;jettySize=auto;html=1;exitX=1;exitY=0.5;exitDx=0;exitDy=0;" parent="1" source="aMHO8R0auKOJSFqjAV-H-2" edge="1">
          <mxGeometry relative="1" as="geometry">
            <mxPoint x="410" y="265" as="targetPoint" />
          </mxGeometry>
        </mxCell>
        <mxCell id="aMHO8R0auKOJSFqjAV-H-2" value="程序源码" style="rounded=0;whiteSpace=wrap;html=1;strokeWidth=1;fontSize=19;fontFamily=黑体;" parent="1" vertex="1">
          <mxGeometry x="261" y="240" width="120" height="50" as="geometry" />
        </mxCell>
        <mxCell id="aMHO8R0auKOJSFqjAV-H-30" style="edgeStyle=orthogonalEdgeStyle;rounded=0;orthogonalLoop=1;jettySize=auto;html=1;exitX=1;exitY=0.5;exitDx=0;exitDy=0;exitPerimeter=0;entryX=0;entryY=0.5;entryDx=0;entryDy=0;" parent="1" source="aMHO8R0auKOJSFqjAV-H-6" target="aMHO8R0auKOJSFqjAV-H-2" edge="1">
          <mxGeometry relative="1" as="geometry" />
        </mxCell>
        <mxCell id="aMHO8R0auKOJSFqjAV-H-6" value="&lt;font face=&quot;黑体&quot; style=&quot;font-size: 19px;&quot;&gt;开始&lt;/font&gt;" style="html=1;dashed=0;whiteSpace=wrap;shape=mxgraph.dfd.start;strokeWidth=1;fontSize=19;" parent="1" vertex="1">
          <mxGeometry x="70" y="240" width="120" height="50" as="geometry" />
        </mxCell>
        <mxCell id="aMHO8R0auKOJSFqjAV-H-14" value="&lt;font face=&quot;黑体&quot; style=&quot;font-size: 19px;&quot;&gt;结束&lt;/font&gt;" style="html=1;dashed=0;whiteSpace=wrap;shape=mxgraph.dfd.start;strokeWidth=1;fontSize=19;" parent="1" vertex="1">
          <mxGeometry x="60" y="560" width="120" height="50" as="geometry" />
        </mxCell>
        <mxCell id="aMHO8R0auKOJSFqjAV-H-31" style="edgeStyle=orthogonalEdgeStyle;rounded=0;orthogonalLoop=1;jettySize=auto;html=1;exitX=0.5;exitY=1;exitDx=0;exitDy=0;entryX=0.5;entryY=0;entryDx=0;entryDy=0;" parent="1" source="aMHO8R0auKOJSFqjAV-H-17" target="aMHO8R0auKOJSFqjAV-H-2" edge="1">
          <mxGeometry relative="1" as="geometry" />
        </mxCell>
        <mxCell id="aMHO8R0auKOJSFqjAV-H-17" value="欠覆盖目标" style="rounded=0;whiteSpace=wrap;html=1;strokeWidth=1;fontSize=19;fontFamily=黑体;" parent="1" vertex="1">
          <mxGeometry x="261" y="140" width="120" height="50" as="geometry" />
        </mxCell>
        <mxCell id="aMHO8R0auKOJSFqjAV-H-21" value="编译&lt;div&gt;存储编译信息&lt;/div&gt;" style="rounded=0;whiteSpace=wrap;html=1;strokeWidth=1;fontSize=19;fontFamily=黑体;" parent="1" vertex="1">
          <mxGeometry x="450" y="140" width="120" height="50" as="geometry" />
        </mxCell>
        <mxCell id="aMHO8R0auKOJSFqjAV-H-22" value="分析项目结构信息" style="rounded=0;whiteSpace=wrap;html=1;strokeWidth=1;fontSize=19;fontFamily=黑体;" parent="1" vertex="1">
          <mxGeometry x="450" y="240" width="120" height="50" as="geometry" />
        </mxCell>
        <mxCell id="aMHO8R0auKOJSFqjAV-H-23" value="目标函数&lt;div&gt;上下文提取&lt;/div&gt;" style="rounded=0;whiteSpace=wrap;html=1;strokeWidth=1;fontSize=19;fontFamily=黑体;" parent="1" vertex="1">
          <mxGeometry x="450" y="340" width="120" height="50" as="geometry" />
        </mxCell>
        <mxCell id="aMHO8R0auKOJSFqjAV-H-37" style="edgeStyle=orthogonalEdgeStyle;rounded=0;orthogonalLoop=1;jettySize=auto;html=1;exitX=1;exitY=0.5;exitDx=0;exitDy=0;entryX=0;entryY=0.5;entryDx=0;entryDy=0;" parent="1" source="aMHO8R0auKOJSFqjAV-H-24" target="aMHO8R0auKOJSFqjAV-H-27" edge="1">
          <mxGeometry relative="1" as="geometry" />
        </mxCell>
        <mxCell id="aMHO8R0auKOJSFqjAV-H-24" value="代码单元" style="rounded=0;whiteSpace=wrap;html=1;strokeWidth=1;fontSize=19;fontFamily=黑体;" parent="1" vertex="1">
          <mxGeometry x="827" y="240" width="120" height="50" as="geometry" />
        </mxCell>
        <mxCell id="aMHO8R0auKOJSFqjAV-H-35" style="edgeStyle=orthogonalEdgeStyle;rounded=0;orthogonalLoop=1;jettySize=auto;html=1;exitX=1;exitY=0.5;exitDx=0;exitDy=0;entryX=0;entryY=0.5;entryDx=0;entryDy=0;" parent="1" source="aMHO8R0auKOJSFqjAV-H-26" target="aMHO8R0auKOJSFqjAV-H-28" edge="1">
          <mxGeometry relative="1" as="geometry" />
        </mxCell>
        <mxCell id="aMHO8R0auKOJSFqjAV-H-26" value="&lt;font face=&quot;黑体&quot; style=&quot;font-size: 19px; font-weight: normal;&quot;&gt;预处理&lt;/font&gt;" style="swimlane;whiteSpace=wrap;html=1;strokeWidth=1;" parent="1" vertex="1">
          <mxGeometry x="410" y="90" width="200" height="350" as="geometry" />
        </mxCell>
        <mxCell id="aMHO8R0auKOJSFqjAV-H-38" style="edgeStyle=orthogonalEdgeStyle;rounded=0;orthogonalLoop=1;jettySize=auto;html=1;exitX=0.5;exitY=0;exitDx=0;exitDy=0;entryX=1;entryY=0.5;entryDx=0;entryDy=0;" parent="1" source="aMHO8R0auKOJSFqjAV-H-27" target="aMHO8R0auKOJSFqjAV-H-29" edge="1">
          <mxGeometry relative="1" as="geometry" />
        </mxCell>
        <mxCell id="aMHO8R0auKOJSFqjAV-H-40" value="False" style="edgeLabel;html=1;align=center;verticalAlign=middle;resizable=0;points=[];fontSize=18;fontFamily=Times New Roman;" parent="aMHO8R0auKOJSFqjAV-H-38" vertex="1" connectable="0">
          <mxGeometry x="-0.5157" y="3" relative="1" as="geometry">
            <mxPoint as="offset" />
          </mxGeometry>
        </mxCell>
        <mxCell id="aMHO8R0auKOJSFqjAV-H-42" style="edgeStyle=orthogonalEdgeStyle;rounded=0;orthogonalLoop=1;jettySize=auto;html=1;exitX=0.5;exitY=1;exitDx=0;exitDy=0;entryX=1;entryY=0.5;entryDx=0;entryDy=0;" parent="1" source="aMHO8R0auKOJSFqjAV-H-27" target="aMHO8R0auKOJSFqjAV-H-41" edge="1">
          <mxGeometry relative="1" as="geometry" />
        </mxCell>
        <mxCell id="aMHO8R0auKOJSFqjAV-H-43" value="True" style="edgeLabel;html=1;align=center;verticalAlign=middle;resizable=0;points=[];fontSize=18;fontFamily=Times New Roman;" parent="aMHO8R0auKOJSFqjAV-H-42" vertex="1" connectable="0">
          <mxGeometry x="-0.4018" y="3" relative="1" as="geometry">
            <mxPoint as="offset" />
          </mxGeometry>
        </mxCell>
        <mxCell id="aMHO8R0auKOJSFqjAV-H-27" value="&lt;font face=&quot;黑体&quot; style=&quot;font-size: 19px;&quot;&gt;编译是否通过&lt;/font&gt;" style="rhombus;whiteSpace=wrap;html=1;strokeWidth=1;" parent="1" vertex="1">
          <mxGeometry x="990" y="225" width="140" height="80" as="geometry" />
        </mxCell>
        <mxCell id="aMHO8R0auKOJSFqjAV-H-36" style="edgeStyle=orthogonalEdgeStyle;rounded=0;orthogonalLoop=1;jettySize=auto;html=1;exitX=1;exitY=0.5;exitDx=0;exitDy=0;entryX=0;entryY=0.5;entryDx=0;entryDy=0;" parent="1" source="aMHO8R0auKOJSFqjAV-H-28" target="aMHO8R0auKOJSFqjAV-H-24" edge="1">
          <mxGeometry relative="1" as="geometry" />
        </mxCell>
        <mxCell id="aMHO8R0auKOJSFqjAV-H-28" value="参数及变量初始化" style="rounded=0;whiteSpace=wrap;html=1;strokeWidth=1;fontSize=19;fontFamily=黑体;" parent="1" vertex="1">
          <mxGeometry x="650" y="240" width="120" height="50" as="geometry" />
        </mxCell>
        <mxCell id="aMHO8R0auKOJSFqjAV-H-39" style="edgeStyle=orthogonalEdgeStyle;rounded=0;orthogonalLoop=1;jettySize=auto;html=1;exitX=0.5;exitY=1;exitDx=0;exitDy=0;entryX=0.5;entryY=0;entryDx=0;entryDy=0;" parent="1" source="aMHO8R0auKOJSFqjAV-H-29" target="aMHO8R0auKOJSFqjAV-H-24" edge="1">
          <mxGeometry relative="1" as="geometry" />
        </mxCell>
        <mxCell id="aMHO8R0auKOJSFqjAV-H-29" value="补充依赖" style="rounded=0;whiteSpace=wrap;html=1;strokeWidth=1;fontSize=19;fontFamily=黑体;" parent="1" vertex="1">
          <mxGeometry x="827" y="90" width="120" height="50" as="geometry" />
        </mxCell>
        <mxCell id="aMHO8R0auKOJSFqjAV-H-52" style="edgeStyle=orthogonalEdgeStyle;rounded=0;orthogonalLoop=1;jettySize=auto;html=1;exitX=0;exitY=0.5;exitDx=0;exitDy=0;entryX=1;entryY=0.5;entryDx=0;entryDy=0;" parent="1" source="aMHO8R0auKOJSFqjAV-H-41" target="aMHO8R0auKOJSFqjAV-H-49" edge="1">
          <mxGeometry relative="1" as="geometry" />
        </mxCell>
        <mxCell id="aMHO8R0auKOJSFqjAV-H-41" value="欠覆盖目标&lt;div&gt;测试驱动&lt;/div&gt;" style="rounded=0;whiteSpace=wrap;html=1;strokeWidth=1;fontSize=19;fontFamily=黑体;" parent="1" vertex="1">
          <mxGeometry x="827" y="560" width="120" height="50" as="geometry" />
        </mxCell>
        <mxCell id="aMHO8R0auKOJSFqjAV-H-46" style="edgeStyle=orthogonalEdgeStyle;rounded=0;orthogonalLoop=1;jettySize=auto;html=1;exitX=0.5;exitY=1;exitDx=0;exitDy=0;" parent="1" source="aMHO8R0auKOJSFqjAV-H-44" target="aMHO8R0auKOJSFqjAV-H-41" edge="1">
          <mxGeometry relative="1" as="geometry" />
        </mxCell>
        <mxCell id="aMHO8R0auKOJSFqjAV-H-44" value="测试用例" style="rounded=0;whiteSpace=wrap;html=1;strokeWidth=1;fontSize=19;fontFamily=黑体;" parent="1" vertex="1">
          <mxGeometry x="827" y="430" width="120" height="50" as="geometry" />
        </mxCell>
        <mxCell id="aMHO8R0auKOJSFqjAV-H-48" style="edgeStyle=orthogonalEdgeStyle;rounded=0;orthogonalLoop=1;jettySize=auto;html=1;exitX=1;exitY=0.5;exitDx=0;exitDy=0;entryX=0;entryY=0.5;entryDx=0;entryDy=0;" parent="1" source="aMHO8R0auKOJSFqjAV-H-45" target="aMHO8R0auKOJSFqjAV-H-44" edge="1">
          <mxGeometry relative="1" as="geometry" />
        </mxCell>
        <mxCell id="aMHO8R0auKOJSFqjAV-H-45" value="结构敏感变异" style="rounded=0;whiteSpace=wrap;html=1;strokeWidth=1;fontSize=19;fontFamily=黑体;" parent="1" vertex="1">
          <mxGeometry x="650" y="430" width="120" height="50" as="geometry" />
        </mxCell>
        <mxCell id="aMHO8R0auKOJSFqjAV-H-53" style="edgeStyle=orthogonalEdgeStyle;rounded=0;orthogonalLoop=1;jettySize=auto;html=1;exitX=0;exitY=0.5;exitDx=0;exitDy=0;entryX=1;entryY=0.5;entryDx=0;entryDy=0;" parent="1" source="aMHO8R0auKOJSFqjAV-H-49" target="aMHO8R0auKOJSFqjAV-H-50" edge="1">
          <mxGeometry relative="1" as="geometry" />
        </mxCell>
        <mxCell id="aMHO8R0auKOJSFqjAV-H-57" value="True" style="edgeLabel;html=1;align=center;verticalAlign=middle;resizable=0;points=[];fontSize=18;fontFamily=Times New Roman;" parent="aMHO8R0auKOJSFqjAV-H-53" vertex="1" connectable="0">
          <mxGeometry x="-0.0862" y="-1" relative="1" as="geometry">
            <mxPoint as="offset" />
          </mxGeometry>
        </mxCell>
        <mxCell id="aMHO8R0auKOJSFqjAV-H-55" style="edgeStyle=orthogonalEdgeStyle;rounded=0;orthogonalLoop=1;jettySize=auto;html=1;exitX=0.5;exitY=0;exitDx=0;exitDy=0;entryX=1;entryY=0.5;entryDx=0;entryDy=0;" parent="1" source="aMHO8R0auKOJSFqjAV-H-49" target="aMHO8R0auKOJSFqjAV-H-51" edge="1">
          <mxGeometry relative="1" as="geometry" />
        </mxCell>
        <mxCell id="aMHO8R0auKOJSFqjAV-H-56" value="False" style="edgeLabel;html=1;align=center;verticalAlign=middle;resizable=0;points=[];fontSize=18;fontFamily=Times New Roman;" parent="aMHO8R0auKOJSFqjAV-H-55" vertex="1" connectable="0">
          <mxGeometry x="0.2272" y="2" relative="1" as="geometry">
            <mxPoint as="offset" />
          </mxGeometry>
        </mxCell>
        <mxCell id="aMHO8R0auKOJSFqjAV-H-49" value="&lt;font face=&quot;黑体&quot; style=&quot;font-size: 19px;&quot;&gt;目标是否崩溃&lt;/font&gt;" style="rhombus;whiteSpace=wrap;html=1;strokeWidth=1;" parent="1" vertex="1">
          <mxGeometry x="520" y="545" width="140" height="80" as="geometry" />
        </mxCell>
        <mxCell id="aMHO8R0auKOJSFqjAV-H-50" value="漏洞存在性&lt;div&gt;验证&lt;/div&gt;" style="rounded=0;whiteSpace=wrap;html=1;strokeWidth=1;fontSize=19;fontFamily=黑体;" parent="1" vertex="1">
          <mxGeometry x="290" y="560" width="120" height="50" as="geometry" />
        </mxCell>
        <mxCell id="aMHO8R0auKOJSFqjAV-H-51" value="无安全风险" style="rounded=0;whiteSpace=wrap;html=1;strokeWidth=1;fontSize=19;fontFamily=黑体;" parent="1" vertex="1">
          <mxGeometry x="290" y="460" width="120" height="50" as="geometry" />
        </mxCell>
        <mxCell id="aMHO8R0auKOJSFqjAV-H-54" style="edgeStyle=orthogonalEdgeStyle;rounded=0;orthogonalLoop=1;jettySize=auto;html=1;exitX=0;exitY=0.5;exitDx=0;exitDy=0;entryX=1;entryY=0.5;entryDx=0;entryDy=0;entryPerimeter=0;" parent="1" source="aMHO8R0auKOJSFqjAV-H-50" target="aMHO8R0auKOJSFqjAV-H-14" edge="1">
          <mxGeometry relative="1" as="geometry" />
        </mxCell>
      </root>
    </mxGraphModel>
  </diagram>
  <diagram id="X1qMiQu6Y3p-vNeclDtP" name="第 6 页">
    <mxGraphModel dx="2039" dy="725" grid="1" gridSize="10" guides="1" tooltips="1" connect="1" arrows="1" fold="1" page="1" pageScale="1" pageWidth="827" pageHeight="1169" math="0" shadow="0">
      <root>
        <mxCell id="0" />
        <mxCell id="1" parent="0" />
        <mxCell id="bRmekW_l6zr95Rm3kBOg-31" style="edgeStyle=orthogonalEdgeStyle;rounded=0;orthogonalLoop=1;jettySize=auto;html=1;exitX=0.5;exitY=0.5;exitDx=0;exitDy=25;exitPerimeter=0;entryX=0.5;entryY=0;entryDx=0;entryDy=0;" parent="1" source="bRmekW_l6zr95Rm3kBOg-1" target="bRmekW_l6zr95Rm3kBOg-2" edge="1">
          <mxGeometry relative="1" as="geometry" />
        </mxCell>
        <mxCell id="bRmekW_l6zr95Rm3kBOg-1" value="&lt;font face=&quot;黑体&quot; style=&quot;font-size: 19px;&quot;&gt;开始&lt;/font&gt;" style="html=1;dashed=0;whiteSpace=wrap;shape=mxgraph.dfd.start;strokeWidth=1;fontSize=19;" parent="1" vertex="1">
          <mxGeometry x="136.5" y="140" width="120" height="50" as="geometry" />
        </mxCell>
        <mxCell id="bRmekW_l6zr95Rm3kBOg-36" style="edgeStyle=orthogonalEdgeStyle;rounded=0;orthogonalLoop=1;jettySize=auto;html=1;exitX=0.5;exitY=1;exitDx=0;exitDy=0;entryX=0.5;entryY=0;entryDx=0;entryDy=0;" parent="1" source="bRmekW_l6zr95Rm3kBOg-2" target="bRmekW_l6zr95Rm3kBOg-5" edge="1">
          <mxGeometry relative="1" as="geometry" />
        </mxCell>
        <mxCell id="bRmekW_l6zr95Rm3kBOg-2" value="预处理分析" style="rounded=0;whiteSpace=wrap;html=1;strokeWidth=1;fontSize=19;fontFamily=黑体;" parent="1" vertex="1">
          <mxGeometry x="136.5" y="240" width="120" height="50" as="geometry" />
        </mxCell>
        <mxCell id="bRmekW_l6zr95Rm3kBOg-35" style="edgeStyle=orthogonalEdgeStyle;rounded=0;orthogonalLoop=1;jettySize=auto;html=1;exitX=0;exitY=0.5;exitDx=0;exitDy=0;entryX=1;entryY=0.5;entryDx=0;entryDy=0;" parent="1" source="bRmekW_l6zr95Rm3kBOg-4" target="bRmekW_l6zr95Rm3kBOg-2" edge="1">
          <mxGeometry relative="1" as="geometry" />
        </mxCell>
        <mxCell id="bRmekW_l6zr95Rm3kBOg-4" value="程序源码" style="rounded=0;whiteSpace=wrap;html=1;strokeWidth=1;fontSize=19;fontFamily=黑体;" parent="1" vertex="1">
          <mxGeometry x="300" y="240" width="120" height="50" as="geometry" />
        </mxCell>
        <mxCell id="bRmekW_l6zr95Rm3kBOg-37" style="edgeStyle=orthogonalEdgeStyle;rounded=0;orthogonalLoop=1;jettySize=auto;html=1;exitX=0.5;exitY=1;exitDx=0;exitDy=0;entryX=0.5;entryY=0;entryDx=0;entryDy=0;" parent="1" source="bRmekW_l6zr95Rm3kBOg-5" target="bRmekW_l6zr95Rm3kBOg-7" edge="1">
          <mxGeometry relative="1" as="geometry" />
        </mxCell>
        <mxCell id="bRmekW_l6zr95Rm3kBOg-5" value="支配节点识别" style="rounded=0;whiteSpace=wrap;html=1;strokeWidth=1;fontSize=19;fontFamily=黑体;" parent="1" vertex="1">
          <mxGeometry x="136.5" y="330" width="120" height="50" as="geometry" />
        </mxCell>
        <mxCell id="bRmekW_l6zr95Rm3kBOg-34" style="edgeStyle=orthogonalEdgeStyle;rounded=0;orthogonalLoop=1;jettySize=auto;html=1;exitX=1;exitY=0.5;exitDx=0;exitDy=0;entryX=0;entryY=0.5;entryDx=0;entryDy=0;" parent="1" source="bRmekW_l6zr95Rm3kBOg-6" target="bRmekW_l6zr95Rm3kBOg-2" edge="1">
          <mxGeometry relative="1" as="geometry" />
        </mxCell>
        <mxCell id="bRmekW_l6zr95Rm3kBOg-6" value="多目标线索" style="shape=document;whiteSpace=wrap;html=1;boundedLbl=1;fontFamily=黑体;fontSize=19;strokeWidth=1;" parent="1" vertex="1">
          <mxGeometry x="-30" y="235" width="120" height="60" as="geometry" />
        </mxCell>
        <mxCell id="bRmekW_l6zr95Rm3kBOg-38" style="edgeStyle=orthogonalEdgeStyle;rounded=0;orthogonalLoop=1;jettySize=auto;html=1;exitX=0.5;exitY=1;exitDx=0;exitDy=0;entryX=0.5;entryY=0;entryDx=0;entryDy=0;" parent="1" source="bRmekW_l6zr95Rm3kBOg-7" target="bRmekW_l6zr95Rm3kBOg-8" edge="1">
          <mxGeometry relative="1" as="geometry" />
        </mxCell>
        <mxCell id="bRmekW_l6zr95Rm3kBOg-7" value="基本块评分初始化" style="rounded=0;whiteSpace=wrap;html=1;strokeWidth=1;fontSize=19;fontFamily=黑体;" parent="1" vertex="1">
          <mxGeometry x="136.5" y="420" width="120" height="50" as="geometry" />
        </mxCell>
        <mxCell id="bRmekW_l6zr95Rm3kBOg-39" style="edgeStyle=orthogonalEdgeStyle;rounded=0;orthogonalLoop=1;jettySize=auto;html=1;exitX=0.5;exitY=1;exitDx=0;exitDy=0;entryX=0.5;entryY=0;entryDx=0;entryDy=0;" parent="1" source="bRmekW_l6zr95Rm3kBOg-8" target="bRmekW_l6zr95Rm3kBOg-17" edge="1">
          <mxGeometry relative="1" as="geometry" />
        </mxCell>
        <mxCell id="bRmekW_l6zr95Rm3kBOg-8" value="插桩" style="rounded=0;whiteSpace=wrap;html=1;strokeWidth=1;fontSize=19;fontFamily=黑体;" parent="1" vertex="1">
          <mxGeometry x="136.5" y="510" width="120" height="50" as="geometry" />
        </mxCell>
        <mxCell id="bRmekW_l6zr95Rm3kBOg-43" style="edgeStyle=orthogonalEdgeStyle;rounded=0;orthogonalLoop=1;jettySize=auto;html=1;exitX=0;exitY=0.5;exitDx=0;exitDy=0;entryX=1;entryY=0.5;entryDx=0;entryDy=0;" parent="1" source="bRmekW_l6zr95Rm3kBOg-17" target="bRmekW_l6zr95Rm3kBOg-30" edge="1">
          <mxGeometry relative="1" as="geometry" />
        </mxCell>
        <mxCell id="bRmekW_l6zr95Rm3kBOg-44" style="edgeStyle=orthogonalEdgeStyle;rounded=0;orthogonalLoop=1;jettySize=auto;html=1;exitX=0.5;exitY=1;exitDx=0;exitDy=0;entryX=0.5;entryY=0;entryDx=0;entryDy=0;" parent="1" source="bRmekW_l6zr95Rm3kBOg-17" target="bRmekW_l6zr95Rm3kBOg-21" edge="1">
          <mxGeometry relative="1" as="geometry" />
        </mxCell>
        <mxCell id="bRmekW_l6zr95Rm3kBOg-45" style="edgeStyle=orthogonalEdgeStyle;rounded=0;orthogonalLoop=1;jettySize=auto;html=1;exitX=0.5;exitY=1;exitDx=0;exitDy=0;" parent="1" source="bRmekW_l6zr95Rm3kBOg-17" target="bRmekW_l6zr95Rm3kBOg-22" edge="1">
          <mxGeometry relative="1" as="geometry" />
        </mxCell>
        <mxCell id="bRmekW_l6zr95Rm3kBOg-46" style="edgeStyle=orthogonalEdgeStyle;rounded=0;orthogonalLoop=1;jettySize=auto;html=1;exitX=0.5;exitY=1;exitDx=0;exitDy=0;entryX=0.5;entryY=0;entryDx=0;entryDy=0;" parent="1" source="bRmekW_l6zr95Rm3kBOg-17" target="bRmekW_l6zr95Rm3kBOg-42" edge="1">
          <mxGeometry relative="1" as="geometry" />
        </mxCell>
        <mxCell id="bRmekW_l6zr95Rm3kBOg-17" value="插桩后的&lt;div&gt;二进制程序&lt;/div&gt;" style="rounded=0;whiteSpace=wrap;html=1;strokeWidth=1;fontSize=19;fontFamily=黑体;" parent="1" vertex="1">
          <mxGeometry x="136.5" y="610" width="120" height="50" as="geometry" />
        </mxCell>
        <mxCell id="bRmekW_l6zr95Rm3kBOg-40" style="edgeStyle=orthogonalEdgeStyle;rounded=0;orthogonalLoop=1;jettySize=auto;html=1;exitX=0.5;exitY=0.88;exitDx=0;exitDy=0;exitPerimeter=0;" parent="1" source="bRmekW_l6zr95Rm3kBOg-19" target="bRmekW_l6zr95Rm3kBOg-20" edge="1">
          <mxGeometry relative="1" as="geometry" />
        </mxCell>
        <mxCell id="bRmekW_l6zr95Rm3kBOg-19" value="&lt;font style=&quot;font-size: 17px;&quot; face=&quot;黑体&quot;&gt;种子&lt;/font&gt;&lt;div style=&quot;font-size: 17px;&quot;&gt;&lt;font style=&quot;font-size: 17px;&quot; face=&quot;黑体&quot;&gt;语料库&lt;/font&gt;&lt;/div&gt;" style="strokeWidth=1;html=1;shape=mxgraph.flowchart.multi-document;whiteSpace=wrap;" parent="1" vertex="1">
          <mxGeometry x="340" y="505" width="87" height="60" as="geometry" />
        </mxCell>
        <mxCell id="bRmekW_l6zr95Rm3kBOg-41" style="edgeStyle=orthogonalEdgeStyle;rounded=0;orthogonalLoop=1;jettySize=auto;html=1;exitX=0;exitY=0.5;exitDx=0;exitDy=0;entryX=1;entryY=0.5;entryDx=0;entryDy=0;" parent="1" source="bRmekW_l6zr95Rm3kBOg-20" target="bRmekW_l6zr95Rm3kBOg-17" edge="1">
          <mxGeometry relative="1" as="geometry" />
        </mxCell>
        <mxCell id="bRmekW_l6zr95Rm3kBOg-20" value="种子队列" style="rounded=0;whiteSpace=wrap;html=1;strokeWidth=1;fontSize=19;fontFamily=黑体;" parent="1" vertex="1">
          <mxGeometry x="323.5" y="610" width="120" height="50" as="geometry" />
        </mxCell>
        <mxCell id="bRmekW_l6zr95Rm3kBOg-50" style="edgeStyle=orthogonalEdgeStyle;rounded=0;orthogonalLoop=1;jettySize=auto;html=1;exitX=0.5;exitY=1;exitDx=0;exitDy=0;entryX=0;entryY=0.5;entryDx=0;entryDy=0;" parent="1" source="bRmekW_l6zr95Rm3kBOg-21" target="bRmekW_l6zr95Rm3kBOg-23" edge="1">
          <mxGeometry relative="1" as="geometry" />
        </mxCell>
        <mxCell id="bRmekW_l6zr95Rm3kBOg-53" style="edgeStyle=orthogonalEdgeStyle;rounded=0;orthogonalLoop=1;jettySize=auto;html=1;exitX=0.5;exitY=1;exitDx=0;exitDy=0;entryX=1;entryY=0.5;entryDx=0;entryDy=0;" parent="1" source="bRmekW_l6zr95Rm3kBOg-21" target="bRmekW_l6zr95Rm3kBOg-51" edge="1">
          <mxGeometry relative="1" as="geometry" />
        </mxCell>
        <mxCell id="bRmekW_l6zr95Rm3kBOg-21" value="目标覆盖状态" style="rounded=0;whiteSpace=wrap;html=1;strokeWidth=1;fontSize=19;fontFamily=黑体;" parent="1" vertex="1">
          <mxGeometry x="136.5" y="720" width="120" height="50" as="geometry" />
        </mxCell>
        <mxCell id="bRmekW_l6zr95Rm3kBOg-22" value="支配节点&lt;div&gt;覆盖度&lt;/div&gt;" style="rounded=0;whiteSpace=wrap;html=1;strokeWidth=1;fontSize=19;fontFamily=黑体;" parent="1" vertex="1">
          <mxGeometry x="-60" y="720" width="120" height="50" as="geometry" />
        </mxCell>
        <mxCell id="bRmekW_l6zr95Rm3kBOg-23" value="路径修剪优化" style="rounded=0;whiteSpace=wrap;html=1;strokeWidth=1;fontSize=19;fontFamily=黑体;" parent="1" vertex="1">
          <mxGeometry x="240" y="830" width="120" height="50" as="geometry" />
        </mxCell>
        <mxCell id="bRmekW_l6zr95Rm3kBOg-49" style="edgeStyle=orthogonalEdgeStyle;rounded=0;orthogonalLoop=1;jettySize=auto;html=1;exitX=0;exitY=0.5;exitDx=0;exitDy=0;entryX=1;entryY=0.5;entryDx=0;entryDy=0;" parent="1" source="bRmekW_l6zr95Rm3kBOg-24" target="bRmekW_l6zr95Rm3kBOg-20" edge="1">
          <mxGeometry relative="1" as="geometry" />
        </mxCell>
        <mxCell id="bRmekW_l6zr95Rm3kBOg-24" value="种子调度" style="rounded=0;whiteSpace=wrap;html=1;strokeWidth=1;fontSize=19;fontFamily=黑体;" parent="1" vertex="1">
          <mxGeometry x="510" y="610" width="120" height="50" as="geometry" />
        </mxCell>
        <mxCell id="bRmekW_l6zr95Rm3kBOg-56" style="edgeStyle=orthogonalEdgeStyle;rounded=0;orthogonalLoop=1;jettySize=auto;html=1;exitX=0;exitY=0.5;exitDx=0;exitDy=0;entryX=0;entryY=0.5;entryDx=0;entryDy=0;" parent="1" source="bRmekW_l6zr95Rm3kBOg-30" target="bRmekW_l6zr95Rm3kBOg-55" edge="1">
          <mxGeometry relative="1" as="geometry" />
        </mxCell>
        <mxCell id="bRmekW_l6zr95Rm3kBOg-30" value="&lt;font face=&quot;Times New Roman&quot;&gt;Crash&lt;/font&gt;" style="rounded=0;whiteSpace=wrap;html=1;strokeWidth=1;fontSize=19;fontFamily=黑体;" parent="1" vertex="1">
          <mxGeometry x="-60" y="610" width="120" height="50" as="geometry" />
        </mxCell>
        <mxCell id="bRmekW_l6zr95Rm3kBOg-62" style="edgeStyle=orthogonalEdgeStyle;rounded=0;orthogonalLoop=1;jettySize=auto;html=1;exitX=1;exitY=0.5;exitDx=0;exitDy=0;entryX=0;entryY=0.5;entryDx=0;entryDy=0;" parent="1" source="bRmekW_l6zr95Rm3kBOg-42" target="bRmekW_l6zr95Rm3kBOg-61" edge="1">
          <mxGeometry relative="1" as="geometry" />
        </mxCell>
        <mxCell id="bRmekW_l6zr95Rm3kBOg-42" value="测试用例&lt;div&gt;优选评分&lt;/div&gt;" style="rounded=0;whiteSpace=wrap;html=1;strokeWidth=1;fontSize=19;fontFamily=黑体;" parent="1" vertex="1">
          <mxGeometry x="323.5" y="720" width="120" height="50" as="geometry" />
        </mxCell>
        <mxCell id="bRmekW_l6zr95Rm3kBOg-57" style="edgeStyle=orthogonalEdgeStyle;rounded=0;orthogonalLoop=1;jettySize=auto;html=1;exitX=0.5;exitY=1;exitDx=0;exitDy=0;entryX=0.5;entryY=0;entryDx=0;entryDy=0;" parent="1" source="bRmekW_l6zr95Rm3kBOg-51" target="bRmekW_l6zr95Rm3kBOg-55" edge="1">
          <mxGeometry relative="1" as="geometry" />
        </mxCell>
        <mxCell id="bRmekW_l6zr95Rm3kBOg-51" value="欠覆盖目标" style="rounded=0;whiteSpace=wrap;html=1;strokeWidth=1;fontSize=19;fontFamily=黑体;" parent="1" vertex="1">
          <mxGeometry x="40" y="830" width="120" height="50" as="geometry" />
        </mxCell>
        <mxCell id="bRmekW_l6zr95Rm3kBOg-54" value="&lt;font face=&quot;黑体&quot; style=&quot;font-size: 19px;&quot;&gt;结束&lt;/font&gt;" style="html=1;dashed=0;whiteSpace=wrap;shape=mxgraph.dfd.start;strokeWidth=1;fontSize=19;" parent="1" vertex="1">
          <mxGeometry x="136.5" y="1040" width="120" height="50" as="geometry" />
        </mxCell>
        <mxCell id="bRmekW_l6zr95Rm3kBOg-55" value="测试结果" style="rounded=0;whiteSpace=wrap;html=1;strokeWidth=1;fontSize=19;fontFamily=黑体;" parent="1" vertex="1">
          <mxGeometry x="136.5" y="940" width="120" height="50" as="geometry" />
        </mxCell>
        <mxCell id="bRmekW_l6zr95Rm3kBOg-58" style="edgeStyle=orthogonalEdgeStyle;rounded=0;orthogonalLoop=1;jettySize=auto;html=1;exitX=0.5;exitY=1;exitDx=0;exitDy=0;entryX=0.5;entryY=0.5;entryDx=0;entryDy=-25;entryPerimeter=0;" parent="1" source="bRmekW_l6zr95Rm3kBOg-55" target="bRmekW_l6zr95Rm3kBOg-54" edge="1">
          <mxGeometry relative="1" as="geometry" />
        </mxCell>
        <mxCell id="bRmekW_l6zr95Rm3kBOg-60" style="edgeStyle=orthogonalEdgeStyle;rounded=0;orthogonalLoop=1;jettySize=auto;html=1;exitX=0;exitY=0.5;exitDx=0;exitDy=0;entryX=1;entryY=0.5;entryDx=0;entryDy=0;" parent="1" source="bRmekW_l6zr95Rm3kBOg-59" target="bRmekW_l6zr95Rm3kBOg-23" edge="1">
          <mxGeometry relative="1" as="geometry" />
        </mxCell>
        <mxCell id="bRmekW_l6zr95Rm3kBOg-64" style="edgeStyle=orthogonalEdgeStyle;rounded=0;orthogonalLoop=1;jettySize=auto;html=1;exitX=0.5;exitY=0;exitDx=0;exitDy=0;entryX=0.5;entryY=1;entryDx=0;entryDy=0;" parent="1" source="bRmekW_l6zr95Rm3kBOg-59" target="bRmekW_l6zr95Rm3kBOg-42" edge="1">
          <mxGeometry relative="1" as="geometry" />
        </mxCell>
        <mxCell id="bRmekW_l6zr95Rm3kBOg-59" value="支配节点&lt;div&gt;信息更新&lt;/div&gt;" style="rounded=0;whiteSpace=wrap;html=1;strokeWidth=1;fontSize=19;fontFamily=黑体;" parent="1" vertex="1">
          <mxGeometry x="510" y="830" width="120" height="50" as="geometry" />
        </mxCell>
        <mxCell id="bRmekW_l6zr95Rm3kBOg-63" style="edgeStyle=orthogonalEdgeStyle;rounded=0;orthogonalLoop=1;jettySize=auto;html=1;exitX=0.5;exitY=0;exitDx=0;exitDy=0;entryX=0.5;entryY=1;entryDx=0;entryDy=0;" parent="1" source="bRmekW_l6zr95Rm3kBOg-61" target="bRmekW_l6zr95Rm3kBOg-24" edge="1">
          <mxGeometry relative="1" as="geometry" />
        </mxCell>
        <mxCell id="bRmekW_l6zr95Rm3kBOg-61" value="评分排序" style="rounded=0;whiteSpace=wrap;html=1;strokeWidth=1;fontSize=19;fontFamily=黑体;" parent="1" vertex="1">
          <mxGeometry x="510" y="720" width="120" height="50" as="geometry" />
        </mxCell>
      </root>
    </mxGraphModel>
  </diagram>
  <diagram id="uP6xcMfswWabm4f6I5Bu" name="第 7 页">
    <mxGraphModel dx="1426" dy="853" grid="1" gridSize="10" guides="1" tooltips="1" connect="1" arrows="1" fold="1" page="1" pageScale="1" pageWidth="827" pageHeight="1169" math="0" shadow="0">
      <root>
        <mxCell id="0" />
        <mxCell id="1" parent="0" />
        <mxCell id="0nK2TrkH-mdSeK5nXJ8R-12" value="" style="rounded=1;whiteSpace=wrap;html=1;fontFamily=黑体;fontSize=11;fillColor=#d5e8d4;strokeColor=#82b366;shadow=1;" vertex="1" parent="1">
          <mxGeometry x="730" y="410" width="320" height="170" as="geometry" />
        </mxCell>
        <mxCell id="0nK2TrkH-mdSeK5nXJ8R-5" value="测试人员" style="shape=umlActor;verticalLabelPosition=bottom;verticalAlign=top;html=1;outlineConnect=0;fontFamily=黑体;fontSize=24;dashed=1;shadow=1;" vertex="1" parent="1">
          <mxGeometry x="370" y="607" width="60" height="100" as="geometry" />
        </mxCell>
        <mxCell id="0nK2TrkH-mdSeK5nXJ8R-36" style="edgeStyle=orthogonalEdgeStyle;rounded=0;orthogonalLoop=1;jettySize=auto;html=1;exitX=0;exitY=0;exitDx=100;exitDy=35;exitPerimeter=0;entryX=0;entryY=0.5;entryDx=0;entryDy=0;" edge="1" parent="1" source="0nK2TrkH-mdSeK5nXJ8R-8" target="0nK2TrkH-mdSeK5nXJ8R-9">
          <mxGeometry relative="1" as="geometry" />
        </mxCell>
        <mxCell id="0nK2TrkH-mdSeK5nXJ8R-8" value="" style="verticalLabelPosition=bottom;verticalAlign=top;html=1;shape=mxgraph.basic.layered_rect;dx=10;outlineConnect=0;whiteSpace=wrap;fontFamily=黑体;fontSize=11;fillColor=#fff2cc;strokeColor=#d6b656;shadow=1;" vertex="1" parent="1">
          <mxGeometry x="95" y="235" width="150" height="100" as="geometry" />
        </mxCell>
        <mxCell id="0nK2TrkH-mdSeK5nXJ8R-40" style="edgeStyle=orthogonalEdgeStyle;rounded=0;orthogonalLoop=1;jettySize=auto;html=1;exitX=0.5;exitY=1;exitDx=0;exitDy=0;" edge="1" parent="1" source="0nK2TrkH-mdSeK5nXJ8R-9" target="0nK2TrkH-mdSeK5nXJ8R-11">
          <mxGeometry relative="1" as="geometry" />
        </mxCell>
        <mxCell id="0nK2TrkH-mdSeK5nXJ8R-60" style="edgeStyle=orthogonalEdgeStyle;rounded=0;orthogonalLoop=1;jettySize=auto;html=1;exitX=1;exitY=0.25;exitDx=0;exitDy=0;entryX=0;entryY=0.25;entryDx=0;entryDy=0;" edge="1" parent="1" source="0nK2TrkH-mdSeK5nXJ8R-9" target="0nK2TrkH-mdSeK5nXJ8R-14">
          <mxGeometry relative="1" as="geometry" />
        </mxCell>
        <mxCell id="0nK2TrkH-mdSeK5nXJ8R-62" value="变异的测试用例" style="edgeLabel;html=1;align=center;verticalAlign=middle;resizable=0;points=[];fontFamily=黑体;fontSize=24;" vertex="1" connectable="0" parent="0nK2TrkH-mdSeK5nXJ8R-60">
          <mxGeometry x="-0.0466" y="2" relative="1" as="geometry">
            <mxPoint as="offset" />
          </mxGeometry>
        </mxCell>
        <mxCell id="0nK2TrkH-mdSeK5nXJ8R-9" value="&lt;font face=&quot;Times New Roman&quot;&gt;afl-fuzz&amp;nbsp; &amp;nbsp; &amp;nbsp; &amp;nbsp; &amp;nbsp;&lt;/font&gt;" style="rounded=1;whiteSpace=wrap;html=1;fontFamily=黑体;fontSize=24;fillColor=#b1ddf0;strokeColor=#10739e;shadow=1;" vertex="1" parent="1">
          <mxGeometry x="370" y="220" width="180" height="100" as="geometry" />
        </mxCell>
        <mxCell id="0nK2TrkH-mdSeK5nXJ8R-11" value="" style="verticalLabelPosition=bottom;verticalAlign=top;html=1;shape=mxgraph.basic.layered_rect;dx=10;outlineConnect=0;whiteSpace=wrap;fontFamily=黑体;fontSize=11;fillColor=#fff2cc;strokeColor=#d6b656;shadow=1;" vertex="1" parent="1">
          <mxGeometry x="385" y="370" width="150" height="100" as="geometry" />
        </mxCell>
        <mxCell id="0nK2TrkH-mdSeK5nXJ8R-21" style="edgeStyle=orthogonalEdgeStyle;rounded=0;orthogonalLoop=1;jettySize=auto;html=1;entryX=0.5;entryY=1;entryDx=0;entryDy=0;fontSize=11;" edge="1" parent="1" source="0nK2TrkH-mdSeK5nXJ8R-12" target="0nK2TrkH-mdSeK5nXJ8R-14">
          <mxGeometry relative="1" as="geometry" />
        </mxCell>
        <mxCell id="0nK2TrkH-mdSeK5nXJ8R-22" value="&lt;font style=&quot;font-size: 24px;&quot;&gt;插桩编译&lt;/font&gt;" style="edgeLabel;html=1;align=center;verticalAlign=middle;resizable=0;points=[];fontSize=11;fontFamily=黑体;" vertex="1" connectable="0" parent="0nK2TrkH-mdSeK5nXJ8R-21">
          <mxGeometry x="0.0097" relative="1" as="geometry">
            <mxPoint as="offset" />
          </mxGeometry>
        </mxCell>
        <mxCell id="0nK2TrkH-mdSeK5nXJ8R-57" value="" style="edgeStyle=orthogonalEdgeStyle;rounded=0;orthogonalLoop=1;jettySize=auto;html=1;" edge="1" parent="1" source="0nK2TrkH-mdSeK5nXJ8R-14" target="0nK2TrkH-mdSeK5nXJ8R-16">
          <mxGeometry relative="1" as="geometry" />
        </mxCell>
        <mxCell id="0nK2TrkH-mdSeK5nXJ8R-58" style="edgeStyle=orthogonalEdgeStyle;rounded=0;orthogonalLoop=1;jettySize=auto;html=1;exitX=0;exitY=0.75;exitDx=0;exitDy=0;entryX=1;entryY=0.75;entryDx=0;entryDy=0;" edge="1" parent="1" source="0nK2TrkH-mdSeK5nXJ8R-14" target="0nK2TrkH-mdSeK5nXJ8R-9">
          <mxGeometry relative="1" as="geometry" />
        </mxCell>
        <mxCell id="0nK2TrkH-mdSeK5nXJ8R-59" value="覆盖率反馈" style="edgeLabel;html=1;align=center;verticalAlign=middle;resizable=0;points=[];fontFamily=黑体;fontSize=24;" vertex="1" connectable="0" parent="0nK2TrkH-mdSeK5nXJ8R-58">
          <mxGeometry x="0.0328" relative="1" as="geometry">
            <mxPoint as="offset" />
          </mxGeometry>
        </mxCell>
        <mxCell id="0nK2TrkH-mdSeK5nXJ8R-14" value="&lt;font style=&quot;font-size: 24px;&quot;&gt;覆盖率插桩&lt;/font&gt;&lt;div style=&quot;font-size: 24px;&quot;&gt;&lt;font style=&quot;font-size: 24px;&quot;&gt;二进制程序&lt;/font&gt;&lt;/div&gt;" style="rounded=1;whiteSpace=wrap;html=1;fontFamily=黑体;fontSize=24;fillColor=#e1d5e7;strokeColor=#9673a6;shadow=1;" vertex="1" parent="1">
          <mxGeometry x="800" y="220" width="180" height="100" as="geometry" />
        </mxCell>
        <mxCell id="0nK2TrkH-mdSeK5nXJ8R-15" value="程序源码" style="rounded=0;whiteSpace=wrap;html=1;fontFamily=黑体;fontSize=24;fillColor=#e1d5e7;strokeColor=#9673a6;shadow=1;" vertex="1" parent="1">
          <mxGeometry x="820" y="610" width="120" height="60" as="geometry" />
        </mxCell>
        <mxCell id="0nK2TrkH-mdSeK5nXJ8R-16" value="&lt;b&gt;harness&lt;/b&gt;" style="text;strokeColor=none;align=center;fillColor=none;html=1;verticalAlign=middle;whiteSpace=wrap;rounded=0;fontFamily=Times New Roman;fontSize=24;" vertex="1" parent="1">
          <mxGeometry x="860" y="420" width="60" height="30" as="geometry" />
        </mxCell>
        <mxCell id="0nK2TrkH-mdSeK5nXJ8R-18" style="edgeStyle=orthogonalEdgeStyle;rounded=0;orthogonalLoop=1;jettySize=auto;html=1;exitX=0;exitY=0.5;exitDx=0;exitDy=0;entryX=1;entryY=0.3333333333333333;entryDx=0;entryDy=0;entryPerimeter=0;fontFamily=黑体;fontSize=11;" edge="1" parent="1" source="0nK2TrkH-mdSeK5nXJ8R-15" target="0nK2TrkH-mdSeK5nXJ8R-5">
          <mxGeometry relative="1" as="geometry" />
        </mxCell>
        <mxCell id="0nK2TrkH-mdSeK5nXJ8R-19" style="edgeStyle=orthogonalEdgeStyle;rounded=0;orthogonalLoop=1;jettySize=auto;html=1;entryX=-0.002;entryY=0.704;entryDx=0;entryDy=0;entryPerimeter=0;fontFamily=黑体;fontSize=11;" edge="1" parent="1" source="0nK2TrkH-mdSeK5nXJ8R-5" target="0nK2TrkH-mdSeK5nXJ8R-12">
          <mxGeometry relative="1" as="geometry">
            <Array as="points">
              <mxPoint x="400" y="530" />
            </Array>
          </mxGeometry>
        </mxCell>
        <mxCell id="0nK2TrkH-mdSeK5nXJ8R-20" value="编写&lt;font face=&quot;Times New Roman&quot;&gt;harness&lt;/font&gt;" style="edgeLabel;html=1;align=center;verticalAlign=middle;resizable=0;points=[];fontFamily=黑体;fontSize=24;" vertex="1" connectable="0" parent="0nK2TrkH-mdSeK5nXJ8R-19">
          <mxGeometry x="0.3483" y="3" relative="1" as="geometry">
            <mxPoint as="offset" />
          </mxGeometry>
        </mxCell>
        <mxCell id="0nK2TrkH-mdSeK5nXJ8R-65" style="edgeStyle=orthogonalEdgeStyle;rounded=0;orthogonalLoop=1;jettySize=auto;html=1;exitX=0;exitY=0;exitDx=150;exitDy=55;exitPerimeter=0;entryX=0.75;entryY=0;entryDx=0;entryDy=0;" edge="1" parent="1" source="0nK2TrkH-mdSeK5nXJ8R-44" target="0nK2TrkH-mdSeK5nXJ8R-9">
          <mxGeometry relative="1" as="geometry">
            <Array as="points">
              <mxPoint x="880" y="80" />
              <mxPoint x="880" y="173" />
              <mxPoint x="505" y="173" />
            </Array>
          </mxGeometry>
        </mxCell>
        <mxCell id="0nK2TrkH-mdSeK5nXJ8R-66" value="选择用于变异的测试用例" style="edgeLabel;html=1;align=center;verticalAlign=middle;resizable=0;points=[];fontFamily=黑体;fontSize=24;" vertex="1" connectable="0" parent="0nK2TrkH-mdSeK5nXJ8R-65">
          <mxGeometry x="-0.1503" relative="1" as="geometry">
            <mxPoint y="25" as="offset" />
          </mxGeometry>
        </mxCell>
        <mxCell id="0nK2TrkH-mdSeK5nXJ8R-53" value="LLVMFuzzerTestOneInput&lt;div&gt;&lt;br&gt;&lt;/div&gt;&lt;div&gt;&lt;br&gt;&lt;/div&gt;" style="rounded=1;whiteSpace=wrap;html=1;fontFamily=Times New Roman;fontSize=24;dashed=1;dashPattern=8 8;fillColor=#dae8fc;strokeColor=#6c8ebf;" vertex="1" parent="1">
          <mxGeometry x="740" y="470" width="300" height="100" as="geometry" />
        </mxCell>
        <mxCell id="0nK2TrkH-mdSeK5nXJ8R-44" value="" style="verticalLabelPosition=bottom;verticalAlign=top;html=1;shape=mxgraph.basic.layered_rect;dx=10;outlineConnect=0;whiteSpace=wrap;fontFamily=黑体;fontSize=11;fillColor=#fff2cc;strokeColor=#d6b656;shadow=1;" vertex="1" parent="1">
          <mxGeometry x="385" y="25" width="150" height="100" as="geometry" />
        </mxCell>
        <mxCell id="0nK2TrkH-mdSeK5nXJ8R-24" value="种子队列" style="text;strokeColor=none;align=center;fillColor=none;html=1;verticalAlign=middle;whiteSpace=wrap;rounded=0;fontFamily=黑体;fontSize=24;" vertex="1" parent="1">
          <mxGeometry x="400" y="60" width="110" height="30" as="geometry" />
        </mxCell>
        <mxCell id="0nK2TrkH-mdSeK5nXJ8R-39" value="初始种子&lt;div style=&quot;font-size: 24px;&quot;&gt;语料库&lt;/div&gt;" style="text;strokeColor=none;align=center;fillColor=none;html=1;verticalAlign=middle;whiteSpace=wrap;rounded=0;fontFamily=黑体;fontSize=24;" vertex="1" parent="1">
          <mxGeometry x="115" y="266" width="110" height="30" as="geometry" />
        </mxCell>
        <mxCell id="0nK2TrkH-mdSeK5nXJ8R-41" value="&lt;font face=&quot;Times New Roman&quot;&gt;crash&lt;/font&gt;队列" style="text;strokeColor=none;align=center;fillColor=none;html=1;verticalAlign=middle;whiteSpace=wrap;rounded=0;fontFamily=黑体;fontSize=24;" vertex="1" parent="1">
          <mxGeometry x="400" y="387" width="110" height="60" as="geometry" />
        </mxCell>
        <mxCell id="0nK2TrkH-mdSeK5nXJ8R-55" value="" style="shape=image;verticalLabelPosition=bottom;labelBackgroundColor=none;verticalAlign=top;aspect=fixed;imageAspect=0;image=data:image/jpeg,/9j/4AAQSkZJRgABAQEAAAAAAAD/4QAuRXhpZgAATU0AKgAAAAgAAkAAAAMAAAABAAAAAEABAAEAAAABAAAAAAAAAAD/2wBDAAoHBwkHBgoJCAkLCwoMDxkQDw4ODx4WFxIZJCAmJSMgIyIoLTkwKCo2KyIjMkQyNjs9QEBAJjBGS0U+Sjk/QD3/2wBDAQsLCw8NDx0QEB09KSMpPT09PT09PT09PT09PT09PT09PT09PT09PT09PT09PT09PT09PT09PT09PT09PT09PT3/wAARCAEAAQADASIAAhEBAxEB/8QAHwAAAQUBAQEBAQEAAAAAAAAAAAECAwQFBgcICQoL/8QAtRAAAgEDAwIEAwUFBAQAAAF9AQIDAAQRBRIhMUEGE1FhByJxFDKBkaEII0KxwRVS0fAkM2JyggkKFhcYGRolJicoKSo0NTY3ODk6Q0RFRkdISUpTVFVWV1hZWmNkZWZnaGlqc3R1dnd4eXqDhIWGh4iJipKTlJWWl5iZmqKjpKWmp6ipqrKztLW2t7i5usLDxMXGx8jJytLT1NXW19jZ2uHi4+Tl5ufo6erx8vP09fb3+Pn6/8QAHwEAAwEBAQEBAQEBAQAAAAAAAAECAwQFBgcICQoL/8QAtREAAgECBAQDBAcFBAQAAQJ3AAECAxEEBSExBhJBUQdhcRMiMoEIFEKRobHBCSMzUvAVYnLRChYkNOEl8RcYGRomJygpKjU2Nzg5OkNERUZHSElKU1RVVldYWVpjZGVmZ2hpanN0dXZ3eHl6goOEhYaHiImKkpOUlZaXmJmaoqOkpaanqKmqsrO0tba3uLm6wsPExcbHyMnK0tPU1dbX2Nna4uPk5ebn6Onq8vP09fb3+Pn6/9oADAMBAAIRAxEAPwD2WiiigAooooAKKKKACiiigAooooAKKKKAPOfip8QbzwmtvYaUqrezqJTNIoYImSMAdySO/AHqTx4rP4kvL28luLhI5JppDJIQu3LE5J46ck1o/EnXTr/jjUJ1fdBC/wBnhw+9dqcZB9GOW49fxrH0jT/tM4LhgANwyOGGcf0NJ2Suy4trY1LW7a4lVHiCEqW4bPTH+Neh/CT/AJGm5/682/8AQ0rzwQi21RYwcjyS3PXlh/hXq3wd66x/2x/9qUk76mnM3B3PTaKKKowCiiigAooooAKKKKACiiigAooooAKKKKACiiigAooooAKKKKACiiigAooqveXttp9s9ze3ENtbpjdLM4RVycDJPA5IH40AWKinnitYJJp5EiiiUu7uwVVUckknoAO9eWeJ/jlZWu6Dw1bfbZP+fm4DJEOh4Xhm4JHO3BAPIryTW/FWteImJ1bUri5UsHETNiMMBjIQfKDjPIA6n1NAHvmtfFvwrozmNb17+VWCslkvmAAjOd5IQjoOCTk4x1xw+rfGu/1WR7LRNPjtUlEkfnzSM0mCPlZQuNjAZPVucenPklX9JG2683kBB19zUzdotm+HgqlWMXs3r6G1Z6MnnBcefNI2BkdScfrn+db95pq2OseQNuyOCNI8HoAOeO2Tk8565qv4W/0vXIsspSJTIwI9OB+IJBrQ1pIotZnkQktJgnA6HaP04/WuKDk2+ZnrZg6EEqdJJJfecd4oRV1CP0EYB/NqxYZ5bW4jngkeOWJg8bo2GVhyCCOhBFaviS4MuqbcDCKBwevf+tYzjBHGK7aeyueNUab0Nf8A4TLxL/0MOr/+Bsv/AMVXQ2fxi8X2t0sst/DdIucxTW0YRuMc7ArcdeCOnpXDBSfp6mrFvGuSzdF65H+feqISuevaR8eyfJj1nRvXzZ7SX67cRt+AOX9T7VfvvjbZyoV0izYMVGHvWC7TnkFVJzx/tDr0458k03QL/VGH2eHbGTgSPwK6WDwCsI3XcjysD0X5Vx/OolNR6jSS1ZsXPxM8RB3lOopErEkRpBHhfYZUkjtySfeui+GPjbWfE+v3NtqdyZIo7ZpAvlovO9QDwoPQn864TxHpttY6NF9mhVAJVBwM4+Vu9M+HOr6fo3jKym1G5W3QllMr/cGVZRk/wjLdTwOpIFKM+Z6G8oJw5lY+j6KigniureOaCRJYpVDo6MGVlPIII6gjvUtaHMFFFFABRRRQAUUUUAFFFFABRRRQAUUUUAFFFeU/Er4rNo9w2j+HJkN9G2Li6wGWAj+BQcgt2JOQOnXO0A6Xxt8R9L8HQ+WSl7qJYKLOOUKyjg5c87BggjIycjAxkjwPxJ4y1rxXMX1W8d4t25LdPlij64wo6kBiNxy2OCTWPPPLdXEk08jyyysXd3YszMeSST1JPeoqBhRRRQAV1XhjT386VZflBjVip7kjcD7YVh+dc1bGJZ0abJjBywA5IrqvDNy0l5cSmQlN3yqRzjp68YAAx9K5sW2qTsL2jp6o73w9piRCeYKPmIUH07n8ORSap4fluJ3mhA2YJIPXpnj1yfpz+daukFRpsZAPzEk8Y7/4CrnmD/JrzKM5qKZ51TGScm2zwvxHBLb65OkitG3HGPbH9DWSASfmzXrPiDTdPn1ySe4to3kIUgt0OB6d+p6+lc9qPhu2uIpfsirFKX3R7eFXONwPGcdTjoOwHOe2GPp35ZaG0cdS0Tdjj7OzlvrlYIAC7HAz/P6DrXc6R4QhtkSWcGeQHPJ+UVf8OeDl05PMabzJJRuD7MYGeB178H8fauqFvFbwhcZI6GrniL/DsafWYN6O6K2n2SwgNtAzyParN06+SwxgEccdKje4wMDNVbiVjC+O/pxWDi3qzOVZNnP+Ldr6DMTnMbKw7d8f1rzWU7pGOeK9H18B9Eug5IXyyePUcj9a82A3dq7KCsjrpzbp8p1HhL4ha34RmhS3uHn09WBeylbKFeSQuc7DlicjqcEg9K988H+NtL8YaektnKkV4FJms3cGSMjAJx/EuSMMODkZwcgfLFW9N1K60jUIb/T53guoG3RyIeQf6gjIIPBBIPFbgfYFFeefDT4lR+K4F03VHSLWI14P3VulHVl9GA5Kj6jjIX0OgAooooAKKKKACiiigAooooAKKK88+Kvj9fC9g2lWIc6pewkq6kqIIzld4YfxZBCgdCMnoAQDJ+KPxR/s7ztC8PT/AOm8pdXaN/qPVEP9/wBT/D0Hzfd8OoooGFKilmAGB7njFJRQBchktbaNy6G4lIwoPCL7+p/SqjOWx047AVYhtDJgyEqvp3NWBFHF91eR3p2bEVY7SVyMqVBOMkV6L4T8OWaWr/aUaSVW7uQMeox0zj36VzulaZJeXsBkRoo1fLFhyceg74OBgc8ivTdNsGt7VUUcZwG9R/jWdZLkdzz8ZUulGPzLUUaxRLGgwijAGc4p1SBOxFLjHbFeX6I8bkk3oilcWFvdOHmiDsBjOSP5UkWk2i8iBfbLE1dGOg+tVdTuY7WwkaQ4DDYAO5P+c/hUyp6NtD9hOW0W2HnW5cJHJGT0CqaqzTEuepGcY6f5NQ6HEtw73ABCL8qkjqf/AK39addDZO3ykc9+9XQU5K7Vjqw1Oqk1KLQzJOetOMPmpjPX0qLeqJkngDJ74qvfeJLHTLN5nfLDhQOrH0rp5ZNaI76NJuWpzPjS+EMa6epGW+eTHYdh+J5/CuGYnHBGKu6jqMmoXstxKcvK2SfT0/ACqBznFdNONkenKySiuglFFFaGZLBPLazxzQSPHLEwdHRirKw5BBHQg96+g/hp8So/FcC6bqjpFrEa8H7q3Sjqy+jAclR9RxkL871LBPLazxzQSPHLEwdHRirKw5BBHQg96APsaiuP+HHjaPxjoQMm8ajZqkd2GAwzEcOCBjDbScDGCCMYwT2FABRRRQAUUUUAFFFFAGP4m8Q2vhbQbnUrx0AiUiKNm2maTB2oODySOuDgZJ4Br5b1jVbnXNXutSvm3XF1IZGwSQueijJJAAwAOcAAV3Hxi8YvruvtpFscWOmSMhIZh5s2MMSDgfKcqOD/ABEEhuPOKAFooooGFWrS3Z237c4GQMVBHGZXCjqa2bWKTyAmBgHnA6fX3FUldibsiHy9nBIz65yDR5bOQVBPrxWu9taoAYw0jqcbicKf8/hTXdQAjKqKDwVXn16ntV2M1O7si54fsp5dbtd53KrbyHYnPvx3zj8h9K9RTCIAMjAwB6V5dal4rlJIpJvMRtww+Mnjr7V6rbxs8CFgdxHOeK5q8kkrmco63ZH160YqwIW7Ade/NL9nPPArn9ohcvkVq5DWNROoXW1TiCM4X3967a4s2uLaSMNtLqVDAZxmsKTw5BYwNNcTNLjhUA27jXPXrStpt1OnD2i7ta9DHl1ecQpbWIaCFBgYPzH1JPYnrx61i63q+q28KPHcsFBO5iAx/XsP610ltpMl5MRGoyTk9gv5U+38PG8ci5gYQodzK6n58dBz2Nc1LFTc12Oz3I6tIoR3LW+lRPfMBIYg0jNxg45/EV51qt7Jqd0WUEQqcIp9PU+5rpvGmqLNcNp8BBiib94w7sO30H8/pWHo+nfbrsLgrEnzSMOw/wATXrxnZGcaCS5p6IqQ6LcTWL3S4wDhVI5f1x9Kz++G4r1CZIBaqAAI41yqgdAP/wBVcPqdh50zyQph8k7fUf41cZXMG03psYlFOPHBGBnmkIxj3qxCUUUUAbHhnxDdeFtettSs3cGJgJY1baJo8jch4PBA64ODgjkCvqXR9Vttc0e11Kxfdb3UYkXJBK56qcEgEHII5wQRXyFXrvwR8XSRahJ4cvJmaCZTJZqSSI3GS6jjgMMtyQAVOBlqAPbqKKKACiiigArnvHHiFfDPhG/v/O8q4EZitiNpJmYYTAbg4PzEc8AnBroa8N+PGu/aNXsNGik+S1jM8wWXILvwoZR0KqMgnnEnYHkA8mooooAWiijmgZNA3lsHBwwPFdPb3i3umiRnVXiba0QyAM9wO2cdvSuVAJwPm4PX0rV0qaO2ulM4YxN8rgcEe/4VcHZ2ewnZqzL6TneQygL/AHvSpw8If7zF/pj8q6qLwes2Jo3V4ZFDKAcYzzn+f51r2vhq3t40xEBIoIJznORg59v8a2cE1uJQXQyPCtvayhy0Bab7290PHPT0B7/jXa28snnRqTlW/Gqcds0bqONoHHPSr8bqm3CklfTiuGvTe61E0lsXcD0owKh+0k9Ex9TTTMx9B9K4vZT6j0J/lHXFVboR3MYR03KDkZ4pc8885681HK+CffpUzp2Vmr3Iba1QsMaxR7IFCgHJA71DqV6bezwhxLICF9venxPj+lYGvQ6hcXpa3gaSER4yGAwfb86zlRqOm+XQujack5M881qzZ9S8iHDyO20Ad/f6e/tW3aWsWmWH2dG+cf6xx/Ex/p2qTS9Ak/tNpLsGGZsqqsQ3GOv1PA/A1o3egLDCGFwck45WuuFWnSpWm9bGeY5pQpVFRlK2iOeuZGkAGTxwcms/95HMWJ4Jxzzit2XSVbKi4YE9wo4/Oqt1oxHIckfQVEcZS2ucqzHDt/Ec1qVoJmMkYHmdwP4v/r1k9yDxXWnS+cGQ5H+zVS40BJX3LKVbv8vX9etbxxVPuaLG0X1OcIwTTa1NS0drGAS+ZuBbbjbjt9fas0jH41vCamrx2OmE4zV4u6G1Ysr2bTr2C8tXEdxbyLLG20HaynIODweQOtV6Koo+utA1aPXtBsdTi2BbqFZCqOHCMRymR1KnIPTkHgVo15H8CfEYm0+90CV2MsDG5g3MWHlnAZQMYUBsHryXJxwa9coAKKKKACvkvxVrTeIvE+oamWcpcTFo96gMIxwgIHGQoA79Opr6Z8Yav/YXhHVNRExgkht38mTbuxKRiPjB/iKjnj14r5PoAKKKKAHfzr0nwx4f0+XQLWW5tI3lkBdmcZ7nH4YxXA2umXl7LHFb20ju/wB3Cnmu00jwXrEqKLi6eyiA4XeWb/vkHj9KHSlPRHLjsLVrwUIScXfc3v8AhHtKHSwg/wC+Kv2Hg/T7lwz2MSxDBOU+8Pb/ABpdG8OxaPNJK11Nds6gATYOz6emc/pWyZcYA44ojhZLdnFQymtGSdSq2i9FYW9vCsUEaxxqMBV4AqQ28f8Ad/WswzDp/wDXpPMJ7n+VU6Mu56fsJfzGn5Kf3f1o8lP7v61l+YarvqNmhIe7gUg9PMHFQ6L6saw03s2bvlL6frR5a+n61j295b3L7YLiKRgM7UYGrABqHRt1FKhKLs2aHlJ/dqMwx91J/Gq2KaYlfrn0qHTSWrM3TdtZFwQxDJIAHqTUM72wTAdcnjhqgmtz9mcRp8xP51SNpOBkxmvMxeMlRkowV9Nzx8biq+HmoU4tq24l1bQl0ljK70ychvb/ACPxqqzb1+cgj0Iqw0brwVIPuK5/UrNsnO4Z5GDjFZ4Sq67aqR2PPpYWrmFVyneLRqeVH/zyj/75FJ5UX/PKP/vgVx1zbzxjIlkx/vGs6Wa5GcTSjHqxr0fqsOyOr+wqn/Pw9B+y256wQ/8AfAo+y2//AD7w/wDfsV5ubq7AGJ3OfVjUH2+7HPny/Tcar6rEf9iVf+fh0HjlfKslXYiqZQVKoAeh9K4lQZYmXumWH071dvpprmEGWRn2H+Ik4zVGGTy5lY9M8/StqNL2ceU9zCUHQpKDd2iGinyoYpGQ9VOKZWp0nY/CzW20X4gae25/KvG+xyKiglg+AvXoN+wkjnAPXofpqvjmCeW1njmgkeOWJg6OjFWVhyCCOhB719fWV7BqNlBeWrmS3uI1ljbaRuVhkHB5HBHWgCxRRRQBwXxmv4rT4dXMMiuXvJooEKgYDBvMyfbCEcZ5Ir5xr3/49f8AIkWf/YRT/wBFyV4BQAUoz+FJS0Aeo+AXZ7B5ipwEWNSTwMZz/Q/jXWmRj/8AW4rkvhzKraFJHk70kyR7H/8AUa60Y68V1vERSXex01Kmu3RCDccHn8ecU7ae/NPBUenTNLv9q554tbIxdRsTZ7fnS7D6Uu+kdzsPTGDWX1lvoJTZwmp30+pXbl3P2cHEcQ6Aep9TVWKNUBUjgjg9dv8Anp+NW7C3uboSx28CzKQN6kgbfQgnv1/wNWYfDmoSPh0WEDqXcH+Vc/1ic7WR7SrQguW6Vje8NWVvHpsVyqYlcMGYk8/MR/QVs7x0/lVOyt1srOO3Q5VBgn1Pf8zk1PvFdPPZanjVanPNyvux+T6nnuasW4Dk9DgVT3+1S20xSQeh4IrCrWTi0jFzTVjQEYB/lS7R6VVurxowApwxOfWmeZcJtZwzgnBwcY/L0z19hXn89xcpbeFHOSoz61j6rYwvGHIPynHBzTbq5le5R0OIyvykN+nsTVW4kaMGNsZwMEnrWkb720H8KuZsunKUIII5xnrXOalYJEWwcDOCPSup2Tz84K84AAzVC80Sa63AMcyHHAJI/wD11vCo27BGV2cY6Lk4x7E1XeMZICjOOcCuyj8Ey5BkkKDqSRnNPk8NRWsJInJbtlf8/Wu6nHmVwk3Hc4c2TOCpyoYY54rGOVPOQehBHSu6udKAdm87IHJJHWuQ1S3+z6hMnYncCffn/GqkrBCVxNQG4wzA5EsSkn/aHB/l+tU6stmSyHU+U2PoD/8AXqOC2muXKwRNIwGSFGandloir6l+HGof2n8PdFn8ry9luINu7OfLJjz+OzOO2cc18uvG0TlHUq6nBBHIr6V+EX/JMdI/7bf+jnpAdnRRRQB5n8ev+RIs/wDsIp/6LkrwCvf/AI9f8iRZ/wDYRT/0XJXgFABSikooA7nwDfrZ3AhkbalwNoz03g/L/Mj8a9DryLSmC2kbhmDq2QR2Oa6tfGN8qgGKBiBjJU5P696ap3R608I6kISj21O0BOKBnjkntVa21G2m02K8eRIopFGS7YAPpz3ByKfHqdjK4jS7t2djhVWQEmp9iupwSoy102LGaD3GDzTsr/ntTXkAHTk+g60/ZIz5Lley062sN5toim/AbknOPr+NW+ai87H8JFHnADG3r3qVRitgdNt6u7JcH/PFG00kUoPBGD7VLsb6U/Ypk+xbGbOOakQKhXnODnpRj60CMEEswCqMlicYpOhC2o/YFLxHJPFp7z2pZvKBZo0PJ+nuOa5SL4iLIkVqFAkYHLE/ezwB7Edf5Uni3xK7qLbSgzurHc4XPPQY9T1/OuWtdBeKdJbqQPOTv2Kc4PXk9zn0/M1isLSg77sqpBwilJWO2ttTeZyk0iiJhngcj8fetHeJIQWYs/QkjOf/AK1c/ZwnCuQzbOCccCtaJ/k6nPahWvboYJX3NUXSiAKzfNjAUcZqWwuoUk37iZOjD1rLjHmHaCuSepGM1MdttwZFUHByGxmtPZp6IuNNPRGnqeools80CgFCOOtcbe6lLcyZLAbfTjNbGo3FvJZuPMDvkYANc1LtByM5PJ967qNL2dPU1lFNWaJPNDxspAOelcp4kj/fQy+qlT7Y5/qa6YOMentWL4gjD2TNj7jBunrx/WsZpmPKk9EZWjRJdTy2shwsqYBAzyOf8T+FdDpejx6ZM8iys5ZdpBGK5Swuvsd7HOVLBDkgHrxj+tbv/CVxf8+z/wDfQpRaQ1oyl4kshbXYmDlvPLMQRjGMf417l8Fba5h+H0MlxN5kU9xJJbruJ8tM7SuD0+ZXOBxznqTXg+saqupmLbGyeXnOTnOcf4V9C/CL/kmOkf8Abb/0c9S3dgdnRRRSA4X4xWcNz8N76WZNz2skUsRyRtYyKmeOvyuw59fWvm6vrrX7CXVPDupWEDIst1aywIXOFDMhUZ9sn3r5FoAKKKKALNrdvbOCvK91PQ1uW8yTpvRsjuPSubqWGd4G3Rkg007HdhcZKi7PVHTRrLcukMSvIxPyqBk/hXU6D4VuYrmK8u2EZjO4RDlj9T2/X8K57wn4lSzv1WUlY5PlkXt7MPp/InrXp0cqnBXlSMgjnNW3fY68RinJWhs+oojx6Y9qYYT3JP41OMde1UbrXLO34RjO/pHyB+NLU4YU5Tdoq5P5IyTmni3HHp0Ncve+I74zA26pHERj+8R+NWtF1uTzHXUZmZGA2sVHy/l60anQ8HUUeZ/d1Ohjt1BAx361djhyMfz7VVhubWU4juYmJ7CQGta1SOQZVw30NBz8rW5zniB7u28g2j+WGJDYAOemOo+tLb+Hry/08G7v2Al+faB+OPwre1bTI72zKncCjbxtOM4pdKdfIMPOUORk54/z/OnrY6o1OWknG109TE/4Rqws0lCw5aRcNIxyx/HtWBqWmxwhgrNuUAKQMd/T/PSu41N1jhIP4GuZ1EB3jAVgTklvUVz1IXd29jy695ycm7s52y272B3AZ4z/AJ69K1RDhHKg4TjB7f8A16eLFhGgYZbdtOBgn/Oa0IbUxIwYbQwx1zmhJLZEJ22MiMyG9jjhXc5cKAeMnP6VqS6HqVw+WgiGRzhwP8+tVAUttTt3LKI1mUs3oN38u9dUdc0xDtN7AD6F8VtRnbZJs1oTvfuctJ4W1EABI0LdMmQDFVZfB2qSciKPP/XQc12B8Q6SDg39vn/fFTW2r2F5MIra7hlkIztRsmt3iJPR2N3d6tHA/wDCFauMfuov+/grlfGVjcaRELa6RVkkwQAc8f5Fe1Xmo2liUF1cJEZD8oc4zj/9Yrxz4qapb6l4igFpMk0cVuAWQ5wxJyPywfxrGUrmU42Vzi1BLHtgHt7VHU0XEUrYB+XaM9sn/P51DUGQV9T/AA9sY9O8AaJDCzsrWqTEucndJ+8YcdssQPbHWvmPTLCTVdVtLCBkWa6mSFGfO0MzADOO2TX13BBHbQRwwRpHFEoRERQqqo4AAHQAdqAJaKKKACvljx/pEWieOtWsoSohWbzI1SMIqK4DhQOwUNjj06CvqevHfj3ooNvpmtoqBlY2kpLHcwOXTA6YGJOevzDr2APFqKKKAClpKWgY5WKsGBwQetd94e8Z/ZdK8mWJpZI/9Xhug9D7fn6V5/U1vcNbSB1/EUG9CpGMrTV0zvpddvdT/wBfJsjI4jThT/j+Na+m6Lc3IDTstvF2aQYz+H/6q5LTdTWJUuIuHj+YY6jFa0usLrcrXQQRuQFZQc4IGPy70TqKK0PaqS5YpUrJPqd9Y6Lp8KArtuGB+85DY/pU81haXGBJbo2BgcYI/KuZ8JTMmoSJjKGIk/mP/r11n2gA5Pb2pRmmrs8+ane922VRoOnuSVgKkDHDEVcstHtosBNygDAAOf5/WpIZlkBPtzirCShEwO4yMVa11JcqmzY4acAMCeUL2GaSPTVikV1lb5TnGOtIb08AHn0FMe/VMb5ACemSOadxXnbcbqJBcAj7oyKz44YzIHKgsvAJ5xUs11HcPIVbO3g4FU5NSjtgf3c0pB5ES5x689BWTd0/U4Wm2/UluZYoZMSSxpnnlgKilvbPySftEJ45/eDNcp4guYrrVXlgOUKrzjGeP6dPwrMrN1Hax1xwqlFNux0N7cwux8uaI8Y+Ujmsi5k8x+ucDAIOarU+urCpO8jN4dUpXTvcrSxuZCQDgmtnwe6WevRy3LrFGqMCzkAdKz6OT0rV4eLd7mvtJNWOl8bXVvdC3mtpo5RCj5KMDtzt/pk/hXjl3Ibm7kl7MTjPYdv0ruPEEy2mgyqpYNKwjH9fwIBri7W3a6uo4Vzl2xkdv8isqsFCSSFNXSiySa1NvpETuMNN8w/z9Bms2ug8UnbJbRKAEVTjH4D+lc/UyVnY5GrOx3Xwe0r+0/iDaSMsLxWUb3LrKM9BtUgY6h3U9sYznIFfSNeZ/A/Qf7O8KT6qz7pNTk+VVOQqRllHbg7i/cjG3oc16ZUiCiiigArL8R6HD4k8P3ulXBKx3Me0NydjDlWwCM4YA4zzjB4rUooA+PL2yn069ns7pBHcW8jRSLuB2spwRkcHkHpVevXfjf4Slhv4/EdnCzQzqsd4ygkI4wqMeeAwwvAABUc5avIqAClpKXBNAxQCTgVvDwVrjKGFkCCMj98n+NYag7xx3r3C3/494/8AdH8q87McZPDKPIk73PIzXMKmDUfZpO99zyqbw9rGj273dzbbIFxvPmKe+OgPqajsL37JOJQSUb7wHcf4133jb/kVLv8A4B/6EK8vguDGy7xuUdQaeDryxNJzkkne2h35LmU8TSvWsrO2h614YtpQ4vQV8iRCoIPJ6fpxW7LN1A7D8q4nwz4lih077IIy2z5kwcZU/wCBrqvD+sRXl+6SWwZRESA2COoqq1ZUqbk1oj3a040YupJ3S7E6XJjfIJPc1oRXIlQbD93r7VZMtr2soT9UA/pVOK2t4juUTg9x5g5/8drz6edUlvc8t5xhZJ3bTGXMsgyBkdhjvWX5kj3g85sDOSScYqfW9WGmmERxM/mAnLP0x9B71inxHlyxtVztwCHxg+vSvUo4tVYKcVozrpSdeCqQ1TNO4aUJMkD4ZRgAHGWI4/P+lc0+o3m9rEZYyrtCvwVJP6d/TGa6oB9csIbgMICTkDBbGCR6j6+1ZGu6cbSKKcvCXMhBaOHYxyO5B57/AFzzmsVmNGU/ZJ63tY56WKoe1dK/vXtYzYrO7ubZZipcKAvYHHbjqRgdfY1E8MsYLPGyqDtyRjmtV/EkssyST2lrIUG0Ag4HIPr7CotS8SRXlnJZ29n9mjZtzlCME9D8uOnfjHIzmulpPZnfzSTSaVjIEyGMvngHBB61IXTYHWQEEHPbFMhEWTvXIbqRxn+g/WoZjwAuBsBAwMf/AK6cbdQlUXQmMpQEkHg8ZOM0sN0I5AzYUDjk9c/5/Ws99TwCG+Yd8jpWTd6yQSEw7g8ei10p00043MHVa3Zc8V6iwuks8ApF8x5zknp+n86z9GnK3DS7FOxcDPYn/wDUfzrOubqW9nM0zbnIAJxjoMD9BTVmdYmjU4UnJx3qZWlJsxdeV73Lesah9vnXhdqDAI71J4c0ObxJr9lpVudslzJtLcHYo5ZsEjOFBOM84wOayq91+CXhKTTtPn169heOe8UR2ysCD5PBL9ejHGMgHCAg4akYttu56dZWUGnWUFnaoY7e3jWKNdxO1VGAMnk8AdasUUUCCiiigAooooAqalptrq+nzWGoQJPbTrtkjccEf0IOCCOQQCOa+WvFnhm58JeILjS7pvM8vDRzBColQ8hhn8QcZAIIycV9YVyvxA8GReNdCFqJEhvYG8y2mZQQGxgqxxkK3GcdwpwcYIB8wqjMpKqSB3rqfAFrBd6xOtxDHMqwEhZFDAHcvOD9ay7iG50C4udM1C2khuonKyRtwQccfUHg5HBGCOK2Phx/yG7k/wDTuf8A0Ja5cZJqhN7aHDj5SWHqPay0Z3f9jaaDkafZ5/64L/hXGXvj6+tLyeCO2tSkTlBlW6A/WvQK8l1TQdTl1O6kj0+6ZGlYgiFsEZPtXi5byVpS9trba54GUKniJSWI1ttc6jQNefxbLPp+p20HkeVvKx7hkhlxzn3rV/4QzQv+fAf9/X/xrn/AWl3tjq88l1azQoYCoaSMqCdy8c/Q13tRjajo1uWg7LsmZZjVeGr8mHlaOmielzyUuuma5crCuI4p3UL/ALOcY/Ku/wDCTCTUGdTlWgJBHfla821uUprt+FOB57/+hGux+Gt07ajLA3KiAuDnp8y/45r1MdFvCt+R9nUqqeBae/KejcVD9ttf+fmD/v4Km461x3/CN6h/zzT/AL7FfMYShSq39pLlPn8Dh6Ne/tZ8ttvMteKZopntvLkR8Bs7SDjpXP1V1xJ7W2kUMUkifDbT07fzxWLaahOl3EZZ3ZNwDBmJGDX1OFoqjSUIu6R9jhKKoUlTi7pdT1rw9/yBLf8A4F/6EaqeLP8Ajxh/66f0NW/D3/IEt/8AgX/oRqp4s/48Yf8Arp/Q187S/wB/+bPmKH/Izf8AiZylVJYpTM5UEg9Kt0V9SfXNLqVRG2BkNnHpTotJvr0O8EbOobBywH8zW1baK9zAkolUBuxHStbTbI2MLIzhizZyBXn4jMIQi1Td2nsfN5jntCjBqhJOadrNM851/Rr3To43kj8tZCRnzAefwNYsGnzXMgjiXccZ+gr1XxFoja5bRRJMIjG+7JGc8YrCi8IS6WXu2vY2SNCWXZjIx6/rWmGzKEoJTdm+hlgc4w+IgvrErTbtZXOCuYJLaUxyoUb0JpgRm6KTj0rqLnQ5td1z7PavFGyW4kJfIGN2OwPqK6rwl4euNAiuUuZInMpUjyyTjGeuQPWurEY2FCDb37GmYY6lg+ZXvJdDlfAXgmfxjrn2WRpLeyhXzbiUISducBVOMBm5xnsGPOMH6YghjtYI4YI0iiiUIiIuFVRwAAOgA7VyHhnUrbTmuftUmwSbcfKT0z6fWuosdTtNR3i0cvsxu+Ujr06/Q08NjIV4J3Sb6X1JwePp4mCd0pPpfUvUUUV1ncFFFFABRRRQAUUUUAeffEf4aweKkOo6eFh1aNcNjhblR/C3owHAb8Dxgr5r4L01tO1y6ikWRJUiZHSRdrKdy5BHY8V9F1yHi7SbGORNRjtYkvXby3nVdrOuOjEfe+4uM5xjAwM1x49N0J69Dz8zT+rTs+hzdFFeSSeLdaErD7fJwfavnMJgp4m/I0rHyWBy+eM5uRpWPW6K47wVql/qNw5vLp5U8okKw6HcB1/z1rsayxFB0KnI3dmOKw0sNV9nJ3Z4xroJ1++A6md//QjXX/DNSNcn46Wx5/4EtcjrZx4hvT/08P8A+hGu6+GsaHV7obeDb/8Aswr6HHythH6H6FGnz4KVt7I9AqAahp+3nULZT6GVeP1q/wCUnp+teSEknJ6181gcLHE813axw5RlEcY5c7slY0NYC3l5ehWVkkdwrA5BGcZ/rXEEEEgjBBwQe1dQJGAwDxWLcohuXIw247sj35r6qk1GKj2Pr1hHTiknotD1PwnL5/hmykzklTk++45/XNR+K/8Ajxh/66f0NN8FTxxeGbRHHA34I/32qbxVCbm0tUt2ALTAEk8DjFfMxahjm3tdnxdDk/tKTckrSd7nIVn32sJayeWieY4+982Mf/Xro7vwpqcKbVurTcf9tuP/AB2sgeAb+R8edaFif77f4V9BHG0GviR9FLMcFF8rqq5p6T4psfsEccnmCRF+YBcgE1s6dqcGqQvJbbtqOUO4Y5H/AOusMeCrjS7KaV7iyOxTI3zEk4GeMrSaXrmnaZA6SSRrufd8pUf1615tXD06ylOhds+UzHJaM4SrYWXM29kza1XWbXRoUlvC4RztG0Z5rA1PxrpVzpd1BE0xeSJlUFOMkfWsnxr4hstUtoLa1LsyPvLcFenTINY/hrwpq3i29NtpNt5gjwZZGYKkQJxlj+ZwMkgHAOK7MFlkORTqJpmeAyeCgp1k1JM3vB2q/b/FKItvIZp4PIhjjy5Y7g3pwMAkk4AAySK9HvdOutP2faovL3528g5x9PrXS+D/AAVpfg/T0is4klvCpE146ASSE4yM/wAK5Awo4GBnJyTd1rRTrBhPn+UYs/w5znHv7Vrj8vVVOcL83RHRmmW/Wb1o3c+nY5HTdIuNVMgtzGPLxneT3z7e1dT4d0e40o3BuGQ+ZtxtJPTPt71LominR2mJm83zcfw4xjPv71r5p4HARpKM5r3kGW5ZGgo1Zq01fqLRRRXqHshRRRQAUUUUAFFFFACVkeINMl1K0jjgKhlfd8x4xg/41r0GoqU1Ui4y2ZnVpRqwdOWzOJ/4RLUP70H/AH0f8K8s8a/CjV/Dxur+xAvtLTdIXQjzYk4++vfGTyuRhSSFFfRNHescPhaeHvydTnwuBpYW/slufNfgm/t7D57qTy1aNlBwTzu9voa6Y+M9CBwb8f8Afp/8K9D8RfDvRfEG+UQ/Yrxst59uANzHJyy9GyTknhj6ivHvEXwh8SaIjzW0SanbhiAbQFpAuQFJj65Oei7sYOTjmuatltOtUc5t/I5K+UUsRVdSo38jkNVuEuNXup4W3RySsynHUEk16d8IDaubi5uliD4eMO3HH7sgc/jXlE8EltcSQzxvFLExR0dSrKw4IIPQg9q6Pw54mttH05reaKV3aUvlcAdAP6Gu90oyjyvY97DKKXspOyasfRKx2LDcpgI9cgiuam0jSLeFpJLG1VFGSfKFecW3xJhtHzDFcAZ5UkYP4Zqa/wDiha3yRq1rMqqMkAjlvz6UqWHp0m7Ja+R00KNKhK0Z6Pck8bvb/wBizPaWkFsFddpSMBiM9zXmv2mUn/WN+ddTrniq01XSZbVIpkdipUkAg4I688cZ9a5L3rWSjfRBjaylNezeiR6h4S1Wyj8M2iT3sCSLuDLJKAw+YnufQ1PrOr2YFpLDcxyiOYM6xSBjgc9Af515QCR3NXLK/Forq0Qk3ep6V5M8sh7R1E3d9D5aplEXWddSd2729T0H/hYWk5I8u64/2F/+KpP+FiaR/wA87v8A74X/AOKrzGrNnZXOoXKW1lby3Nw+dsUKF2bAycAcngE/hV/2Vhu34l/2LhOz+877UPHmmXWm3MEcd1vliZBlFABII5+bpzXnTHJOOhr0Xw/8F9f1eOKfUXh0u3fqsoLzAbcg7BwMkgYLAjByPX13wx8PtA8J7ZNPtPMux/y93GHl79DjC8MR8oGRjOa66GGp4dNQO3C4SnhYuNPZnlPgv4OX+t7LzxB5unWJ3AQ423DEcD5WGFGc8nk46YIavb9K0bT9Esls9LtIrW3XB2RrjccAZJ6scAcnJOOSavUVudIUUUUAFFFFABRRRQAUUUUAFFFFABRRRQAUUUUAFFFFABRRRQBnavoGl69D5Wq2FvdqFZVMqAsgbg7W6qeByMHgVxWq/BLw1fbmsDd6fJ5ZVVjk8yMNzhmD5J6jgMOB2PNejUUAeG6h8A9SiEf9mazaXGc+Z9oiaHb6Yxvz364xgde2Hf8AwZ8W2k6xw2lteKV3GS3uFCg+nz7TnjPTHPWvo6igD5n/AOFR+NP+gN/5NQf/ABdH/CovGn/QG/8AJqD/AOLr6YooA+dNP+C3iy9En2iG0sduMfaLgHfn08vd0wOuOoxnmt2w+AV7JAx1HW7a3lDYC28LTKV9SSU5znjHbr6e3UUAef6f8FfClkZPtEN3fB8Y+0XBXZj08vb1z3z0GMc12thpljpcDQ6dZ21pEzbylvEsalumcDvgAZ9qt0UAFFFFABRRRQAUUUUAFFFFABRRRQAUUUUAf//Z;" vertex="1" parent="1">
          <mxGeometry x="480" y="240" width="60" height="60" as="geometry" />
        </mxCell>
        <mxCell id="0nK2TrkH-mdSeK5nXJ8R-63" style="edgeStyle=orthogonalEdgeStyle;rounded=0;orthogonalLoop=1;jettySize=auto;html=1;exitX=0;exitY=0.25;exitDx=0;exitDy=0;entryX=0;entryY=0;entryDx=0;entryDy=45;entryPerimeter=0;" edge="1" parent="1" source="0nK2TrkH-mdSeK5nXJ8R-9" target="0nK2TrkH-mdSeK5nXJ8R-44">
          <mxGeometry relative="1" as="geometry" />
        </mxCell>
        <mxCell id="0nK2TrkH-mdSeK5nXJ8R-64" value="&lt;span style=&quot;font-family: 黑体; font-size: 24px;&quot;&gt;保存“有趣”的种子&lt;/span&gt;" style="edgeLabel;html=1;align=center;verticalAlign=middle;resizable=0;points=[];" vertex="1" connectable="0" parent="0nK2TrkH-mdSeK5nXJ8R-63">
          <mxGeometry x="-0.037" y="2" relative="1" as="geometry">
            <mxPoint as="offset" />
          </mxGeometry>
        </mxCell>
        <mxCell id="0nK2TrkH-mdSeK5nXJ8R-13" value="fuzz target" style="rounded=1;whiteSpace=wrap;html=1;fontFamily=Times New Roman;fontSize=24;dashed=1;dashPattern=8 8;fillColor=#fad7ac;strokeColor=#b46504;" vertex="1" parent="1">
          <mxGeometry x="775" y="520" width="230" height="40" as="geometry" />
        </mxCell>
      </root>
    </mxGraphModel>
  </diagram>
  <diagram id="TZYJY36jBim8cZNBgkAv" name="第 8 页">
    <mxGraphModel dx="1426" dy="853" grid="1" gridSize="10" guides="1" tooltips="1" connect="1" arrows="1" fold="1" page="1" pageScale="1" pageWidth="827" pageHeight="1169" math="0" shadow="0">
      <root>
        <mxCell id="0" />
        <mxCell id="1" parent="0" />
        <mxCell id="bVcX_TSPfmjd8QaIaFOp-86" value="" style="rounded=0;whiteSpace=wrap;html=1;dashed=1;dashPattern=12 12;" vertex="1" parent="1">
          <mxGeometry x="990" y="20" width="370" height="550" as="geometry" />
        </mxCell>
        <mxCell id="bVcX_TSPfmjd8QaIaFOp-85" value="" style="rounded=0;whiteSpace=wrap;html=1;dashed=1;dashPattern=12 12;" vertex="1" parent="1">
          <mxGeometry x="180" y="20" width="450" height="550" as="geometry" />
        </mxCell>
        <mxCell id="bVcX_TSPfmjd8QaIaFOp-82" style="edgeStyle=orthogonalEdgeStyle;rounded=0;orthogonalLoop=1;jettySize=auto;html=1;exitX=1;exitY=0.5;exitDx=0;exitDy=0;entryX=0;entryY=0.5;entryDx=0;entryDy=0;" edge="1" parent="1" source="bVcX_TSPfmjd8QaIaFOp-1" target="bVcX_TSPfmjd8QaIaFOp-47">
          <mxGeometry relative="1" as="geometry" />
        </mxCell>
        <mxCell id="bVcX_TSPfmjd8QaIaFOp-1" value="" style="rounded=1;whiteSpace=wrap;html=1;fontFamily=黑体;fontSize=11;fillColor=#d5e8d4;strokeColor=#82b366;shadow=1;" vertex="1" parent="1">
          <mxGeometry x="650" y="127.5" width="320" height="345" as="geometry" />
        </mxCell>
        <mxCell id="bVcX_TSPfmjd8QaIaFOp-8" value="&lt;font face=&quot;Times New Roman&quot;&gt;MTDFuzz&lt;/font&gt;&lt;div&gt;&lt;font face=&quot;Times New Roman&quot;&gt;测试结果&lt;/font&gt;&lt;/div&gt;" style="rounded=1;whiteSpace=wrap;html=1;fontFamily=黑体;fontSize=24;fillColor=#b1ddf0;strokeColor=#10739e;shadow=1;" vertex="1" parent="1">
          <mxGeometry x="211.5" y="170" width="142.5" height="70" as="geometry" />
        </mxCell>
        <mxCell id="bVcX_TSPfmjd8QaIaFOp-62" style="edgeStyle=orthogonalEdgeStyle;rounded=0;orthogonalLoop=1;jettySize=auto;html=1;exitX=0;exitY=0.5;exitDx=0;exitDy=0;entryX=0.5;entryY=1;entryDx=0;entryDy=0;" edge="1" parent="1" source="bVcX_TSPfmjd8QaIaFOp-16" target="bVcX_TSPfmjd8QaIaFOp-1">
          <mxGeometry relative="1" as="geometry">
            <mxPoint x="810" y="480" as="targetPoint" />
          </mxGeometry>
        </mxCell>
        <mxCell id="bVcX_TSPfmjd8QaIaFOp-16" value="测试用例生成" style="rounded=0;whiteSpace=wrap;html=1;fontFamily=黑体;fontSize=24;fillColor=#e1d5e7;strokeColor=#9673a6;shadow=1;" vertex="1" parent="1">
          <mxGeometry x="1008" y="470" width="120" height="60" as="geometry" />
        </mxCell>
        <mxCell id="bVcX_TSPfmjd8QaIaFOp-17" value="&lt;b&gt;函数接口harness合成&lt;/b&gt;" style="text;strokeColor=none;align=center;fillColor=none;html=1;verticalAlign=middle;whiteSpace=wrap;rounded=0;fontFamily=Times New Roman;fontSize=24;" vertex="1" parent="1">
          <mxGeometry x="680" y="142.5" width="260" height="30" as="geometry" />
        </mxCell>
        <mxCell id="bVcX_TSPfmjd8QaIaFOp-23" value="LLVMFuzzerTestOneInput&lt;div&gt;&lt;br&gt;&lt;/div&gt;&lt;div&gt;&lt;br&gt;&lt;/div&gt;&lt;div&gt;&lt;br&gt;&lt;/div&gt;&lt;div&gt;&lt;br&gt;&lt;/div&gt;&lt;div&gt;&lt;br&gt;&lt;/div&gt;&lt;div&gt;&lt;br&gt;&lt;/div&gt;&lt;div&gt;&lt;br&gt;&lt;/div&gt;" style="rounded=1;whiteSpace=wrap;html=1;fontFamily=Times New Roman;fontSize=24;dashed=1;dashPattern=8 8;fillColor=#dae8fc;strokeColor=#6c8ebf;" vertex="1" parent="1">
          <mxGeometry x="660" y="182.5" width="300" height="270" as="geometry" />
        </mxCell>
        <mxCell id="bVcX_TSPfmjd8QaIaFOp-31" value="&lt;font face=&quot;黑体&quot;&gt;代码单元构建&lt;/font&gt;&lt;div&gt;&lt;font face=&quot;MB2QzcQkwYhGF3xKFn0s&quot;&gt;&lt;br&gt;&lt;/font&gt;&lt;/div&gt;&lt;div&gt;&lt;font face=&quot;MB2QzcQkwYhGF3xKFn0s&quot;&gt;&lt;br&gt;&lt;/font&gt;&lt;/div&gt;&lt;div&gt;&lt;font face=&quot;MB2QzcQkwYhGF3xKFn0s&quot;&gt;&lt;br&gt;&lt;/font&gt;&lt;/div&gt;&lt;div&gt;&lt;font face=&quot;MB2QzcQkwYhGF3xKFn0s&quot;&gt;&lt;br&gt;&lt;/font&gt;&lt;/div&gt;&lt;div&gt;&lt;br&gt;&lt;/div&gt;" style="rounded=1;whiteSpace=wrap;html=1;fontFamily=Times New Roman;fontSize=24;dashed=1;dashPattern=8 8;fillColor=#fad7ac;strokeColor=#b46504;" vertex="1" parent="1">
          <mxGeometry x="670" y="242.5" width="280" height="190" as="geometry" />
        </mxCell>
        <mxCell id="bVcX_TSPfmjd8QaIaFOp-32" value="" style="group" vertex="1" connectable="0" parent="1">
          <mxGeometry x="201.5" y="43.5" width="150" height="100" as="geometry" />
        </mxCell>
        <mxCell id="bVcX_TSPfmjd8QaIaFOp-68" style="edgeStyle=orthogonalEdgeStyle;rounded=0;orthogonalLoop=1;jettySize=auto;html=1;exitX=0;exitY=0;exitDx=150;exitDy=55;exitPerimeter=0;" edge="1" parent="bVcX_TSPfmjd8QaIaFOp-32" source="bVcX_TSPfmjd8QaIaFOp-24">
          <mxGeometry relative="1" as="geometry">
            <mxPoint x="227.5" y="55.5" as="targetPoint" />
          </mxGeometry>
        </mxCell>
        <mxCell id="bVcX_TSPfmjd8QaIaFOp-24" value="" style="verticalLabelPosition=bottom;verticalAlign=top;html=1;shape=mxgraph.basic.layered_rect;dx=10;outlineConnect=0;whiteSpace=wrap;fontFamily=黑体;fontSize=11;fillColor=#fff2cc;strokeColor=#d6b656;shadow=1;" vertex="1" parent="bVcX_TSPfmjd8QaIaFOp-32">
          <mxGeometry width="150" height="100" as="geometry" />
        </mxCell>
        <mxCell id="bVcX_TSPfmjd8QaIaFOp-25" value="欠覆盖&lt;div&gt;目标集合R&lt;/div&gt;" style="text;strokeColor=none;align=center;fillColor=none;html=1;verticalAlign=middle;whiteSpace=wrap;rounded=0;fontFamily=黑体;fontSize=24;" vertex="1" parent="bVcX_TSPfmjd8QaIaFOp-32">
          <mxGeometry x="20" y="30" width="110" height="30" as="geometry" />
        </mxCell>
        <mxCell id="bVcX_TSPfmjd8QaIaFOp-33" value="" style="group" vertex="1" connectable="0" parent="1">
          <mxGeometry x="199" y="350" width="155" height="100" as="geometry" />
        </mxCell>
        <mxCell id="bVcX_TSPfmjd8QaIaFOp-4" value="" style="verticalLabelPosition=bottom;verticalAlign=top;html=1;shape=mxgraph.basic.layered_rect;dx=10;outlineConnect=0;whiteSpace=wrap;fontFamily=黑体;fontSize=11;fillColor=#fff2cc;strokeColor=#d6b656;shadow=1;" vertex="1" parent="bVcX_TSPfmjd8QaIaFOp-33">
          <mxGeometry width="150" height="100" as="geometry" />
        </mxCell>
        <mxCell id="bVcX_TSPfmjd8QaIaFOp-26" value="程序&lt;div&gt;源代码&lt;/div&gt;" style="text;strokeColor=none;align=center;fillColor=none;html=1;verticalAlign=middle;whiteSpace=wrap;rounded=0;fontFamily=黑体;fontSize=24;" vertex="1" parent="bVcX_TSPfmjd8QaIaFOp-33">
          <mxGeometry x="20" y="31" width="110" height="30" as="geometry" />
        </mxCell>
        <mxCell id="bVcX_TSPfmjd8QaIaFOp-34" value="" style="group" vertex="1" connectable="0" parent="1">
          <mxGeometry x="424.5" y="250" width="150" height="100" as="geometry" />
        </mxCell>
        <mxCell id="bVcX_TSPfmjd8QaIaFOp-35" value="" style="verticalLabelPosition=bottom;verticalAlign=top;html=1;shape=mxgraph.basic.layered_rect;dx=10;outlineConnect=0;whiteSpace=wrap;fontFamily=黑体;fontSize=11;fillColor=#fff2cc;strokeColor=#d6b656;shadow=1;" vertex="1" parent="bVcX_TSPfmjd8QaIaFOp-34">
          <mxGeometry y="-5" width="150" height="100" as="geometry" />
        </mxCell>
        <mxCell id="bVcX_TSPfmjd8QaIaFOp-36" value="程序编译构建信息" style="text;strokeColor=none;align=center;fillColor=none;html=1;verticalAlign=middle;whiteSpace=wrap;rounded=0;fontFamily=黑体;fontSize=24;" vertex="1" parent="bVcX_TSPfmjd8QaIaFOp-34">
          <mxGeometry x="20" y="30" width="110" height="30" as="geometry" />
        </mxCell>
        <mxCell id="bVcX_TSPfmjd8QaIaFOp-38" value="" style="group" vertex="1" connectable="0" parent="1">
          <mxGeometry x="429" y="450" width="155" height="100" as="geometry" />
        </mxCell>
        <mxCell id="bVcX_TSPfmjd8QaIaFOp-39" value="" style="verticalLabelPosition=bottom;verticalAlign=top;html=1;shape=mxgraph.basic.layered_rect;dx=10;outlineConnect=0;whiteSpace=wrap;fontFamily=黑体;fontSize=11;fillColor=#fff2cc;strokeColor=#d6b656;shadow=1;" vertex="1" parent="bVcX_TSPfmjd8QaIaFOp-38">
          <mxGeometry width="150" height="100" as="geometry" />
        </mxCell>
        <mxCell id="bVcX_TSPfmjd8QaIaFOp-40" value="项目代码&lt;div&gt;组织信息&lt;/div&gt;" style="text;strokeColor=none;align=center;fillColor=none;html=1;verticalAlign=middle;whiteSpace=wrap;rounded=0;fontFamily=黑体;fontSize=24;" vertex="1" parent="bVcX_TSPfmjd8QaIaFOp-38">
          <mxGeometry x="20" y="31" width="110" height="30" as="geometry" />
        </mxCell>
        <mxCell id="bVcX_TSPfmjd8QaIaFOp-43" style="edgeStyle=orthogonalEdgeStyle;rounded=0;orthogonalLoop=1;jettySize=auto;html=1;exitX=0.5;exitY=1;exitDx=0;exitDy=0;entryX=0.5;entryY=0;entryDx=0;entryDy=0;" edge="1" parent="1" source="bVcX_TSPfmjd8QaIaFOp-41" target="bVcX_TSPfmjd8QaIaFOp-42">
          <mxGeometry relative="1" as="geometry" />
        </mxCell>
        <mxCell id="bVcX_TSPfmjd8QaIaFOp-41" value="欠覆盖目标函数预处理" style="rounded=1;whiteSpace=wrap;html=1;fillColor=#d0cee2;strokeColor=#56517e;fontFamily=黑体;fontSize=24;" vertex="1" parent="1">
          <mxGeometry x="685" y="302.5" width="250" height="40" as="geometry" />
        </mxCell>
        <mxCell id="bVcX_TSPfmjd8QaIaFOp-42" value="函数参数及变量初始化" style="rounded=1;whiteSpace=wrap;html=1;fillColor=#d0cee2;strokeColor=#56517e;fontFamily=黑体;fontSize=24;" vertex="1" parent="1">
          <mxGeometry x="685" y="372.5" width="250" height="40" as="geometry" />
        </mxCell>
        <mxCell id="bVcX_TSPfmjd8QaIaFOp-48" style="edgeStyle=orthogonalEdgeStyle;rounded=0;orthogonalLoop=1;jettySize=auto;html=1;exitX=0;exitY=0.5;exitDx=0;exitDy=0;entryX=1;entryY=0.5;entryDx=0;entryDy=0;" edge="1" parent="1" source="bVcX_TSPfmjd8QaIaFOp-44" target="bVcX_TSPfmjd8QaIaFOp-16">
          <mxGeometry relative="1" as="geometry" />
        </mxCell>
        <mxCell id="bVcX_TSPfmjd8QaIaFOp-44" value="&lt;font face=&quot;Times New Roman&quot;&gt;类型敏感&lt;/font&gt;&lt;div&gt;&lt;font face=&quot;Times New Roman&quot;&gt;libfuzzer&lt;/font&gt;&lt;/div&gt;" style="rounded=1;whiteSpace=wrap;html=1;fontFamily=黑体;fontSize=24;fillColor=#d0cee2;strokeColor=#56517e;shadow=1;" vertex="1" parent="1">
          <mxGeometry x="1169" y="450" width="180" height="100" as="geometry" />
        </mxCell>
        <mxCell id="bVcX_TSPfmjd8QaIaFOp-54" style="edgeStyle=orthogonalEdgeStyle;rounded=0;orthogonalLoop=1;jettySize=auto;html=1;exitX=0.5;exitY=0;exitDx=0;exitDy=0;entryX=1;entryY=0.5;entryDx=0;entryDy=0;" edge="1" parent="1" source="bVcX_TSPfmjd8QaIaFOp-45" target="bVcX_TSPfmjd8QaIaFOp-53">
          <mxGeometry relative="1" as="geometry" />
        </mxCell>
        <mxCell id="bVcX_TSPfmjd8QaIaFOp-45" value="&lt;font face=&quot;Times New Roman&quot;&gt;程序执行&lt;/font&gt;&lt;div&gt;&lt;font face=&quot;Times New Roman&quot;&gt;约束完善&lt;/font&gt;&lt;/div&gt;" style="rounded=1;whiteSpace=wrap;html=1;fontFamily=黑体;fontSize=24;fillColor=#d0cee2;strokeColor=#56517e;shadow=1;" vertex="1" parent="1">
          <mxGeometry x="1169" y="150" width="180" height="100" as="geometry" />
        </mxCell>
        <mxCell id="bVcX_TSPfmjd8QaIaFOp-58" style="edgeStyle=orthogonalEdgeStyle;rounded=0;orthogonalLoop=1;jettySize=auto;html=1;exitX=1;exitY=0.5;exitDx=0;exitDy=0;entryX=0.5;entryY=0;entryDx=0;entryDy=0;" edge="1" parent="1" source="bVcX_TSPfmjd8QaIaFOp-47" target="bVcX_TSPfmjd8QaIaFOp-44">
          <mxGeometry relative="1" as="geometry" />
        </mxCell>
        <mxCell id="bVcX_TSPfmjd8QaIaFOp-60" style="edgeStyle=orthogonalEdgeStyle;rounded=0;orthogonalLoop=1;jettySize=auto;html=1;exitX=0.5;exitY=0;exitDx=0;exitDy=0;entryX=0;entryY=0.5;entryDx=0;entryDy=0;" edge="1" parent="1" source="bVcX_TSPfmjd8QaIaFOp-47" target="bVcX_TSPfmjd8QaIaFOp-45">
          <mxGeometry relative="1" as="geometry" />
        </mxCell>
        <mxCell id="bVcX_TSPfmjd8QaIaFOp-47" value="执行信息反馈" style="rounded=0;whiteSpace=wrap;html=1;fontFamily=黑体;fontSize=24;fillColor=#e1d5e7;strokeColor=#9673a6;shadow=1;" vertex="1" parent="1">
          <mxGeometry x="1008" y="270" width="120" height="60" as="geometry" />
        </mxCell>
        <mxCell id="bVcX_TSPfmjd8QaIaFOp-55" style="edgeStyle=orthogonalEdgeStyle;rounded=0;orthogonalLoop=1;jettySize=auto;html=1;exitX=0;exitY=0.5;exitDx=0;exitDy=0;entryX=0.5;entryY=0;entryDx=0;entryDy=0;" edge="1" parent="1" source="bVcX_TSPfmjd8QaIaFOp-53" target="bVcX_TSPfmjd8QaIaFOp-1">
          <mxGeometry relative="1" as="geometry" />
        </mxCell>
        <mxCell id="bVcX_TSPfmjd8QaIaFOp-53" value="补充依赖信息" style="rounded=0;whiteSpace=wrap;html=1;fontFamily=黑体;fontSize=24;fillColor=#e1d5e7;strokeColor=#9673a6;shadow=1;" vertex="1" parent="1">
          <mxGeometry x="1008" y="62.5" width="120" height="60" as="geometry" />
        </mxCell>
        <mxCell id="bVcX_TSPfmjd8QaIaFOp-63" value="" style="group" vertex="1" connectable="0" parent="1">
          <mxGeometry x="998" y="365" width="150" height="70" as="geometry" />
        </mxCell>
        <mxCell id="bVcX_TSPfmjd8QaIaFOp-64" value="" style="verticalLabelPosition=bottom;verticalAlign=top;html=1;shape=mxgraph.basic.layered_rect;dx=10;outlineConnect=0;whiteSpace=wrap;fontFamily=黑体;fontSize=11;fillColor=#fff2cc;strokeColor=#d6b656;shadow=1;" vertex="1" parent="bVcX_TSPfmjd8QaIaFOp-63">
          <mxGeometry width="145.16129032258064" height="70" as="geometry" />
        </mxCell>
        <mxCell id="bVcX_TSPfmjd8QaIaFOp-65" value="漏洞报告" style="text;strokeColor=none;align=center;fillColor=none;html=1;verticalAlign=middle;whiteSpace=wrap;rounded=0;fontFamily=黑体;fontSize=24;" vertex="1" parent="bVcX_TSPfmjd8QaIaFOp-63">
          <mxGeometry x="19.35483870967742" y="21.7" width="106.4516129032258" height="21" as="geometry" />
        </mxCell>
        <mxCell id="bVcX_TSPfmjd8QaIaFOp-81" style="edgeStyle=orthogonalEdgeStyle;rounded=0;orthogonalLoop=1;jettySize=auto;html=1;exitX=1;exitY=0.5;exitDx=0;exitDy=0;entryX=0;entryY=0.5;entryDx=0;entryDy=0;" edge="1" parent="1" source="bVcX_TSPfmjd8QaIaFOp-67" target="bVcX_TSPfmjd8QaIaFOp-1">
          <mxGeometry relative="1" as="geometry">
            <Array as="points">
              <mxPoint x="610" y="93" />
              <mxPoint x="610" y="300" />
            </Array>
          </mxGeometry>
        </mxCell>
        <mxCell id="bVcX_TSPfmjd8QaIaFOp-67" value="&lt;font style=&quot;font-size: 24px;&quot; face=&quot;黑体&quot;&gt;欠覆盖目标r&lt;/font&gt;" style="rounded=0;whiteSpace=wrap;html=1;fillColor=#fff2cc;strokeColor=#d6b656;shadow=1;" vertex="1" parent="1">
          <mxGeometry x="430" y="49" width="139" height="87" as="geometry" />
        </mxCell>
        <mxCell id="bVcX_TSPfmjd8QaIaFOp-73" style="edgeStyle=orthogonalEdgeStyle;rounded=0;orthogonalLoop=1;jettySize=auto;html=1;exitX=0;exitY=0;exitDx=150;exitDy=55;exitPerimeter=0;entryX=0;entryY=0.5;entryDx=0;entryDy=0;" edge="1" parent="1" source="bVcX_TSPfmjd8QaIaFOp-35" target="bVcX_TSPfmjd8QaIaFOp-1">
          <mxGeometry relative="1" as="geometry" />
        </mxCell>
        <mxCell id="bVcX_TSPfmjd8QaIaFOp-75" style="edgeStyle=orthogonalEdgeStyle;rounded=0;orthogonalLoop=1;jettySize=auto;html=1;exitX=0;exitY=0;exitDx=150;exitDy=55;exitPerimeter=0;entryX=0;entryY=0.5;entryDx=0;entryDy=0;" edge="1" parent="1" source="bVcX_TSPfmjd8QaIaFOp-39" target="bVcX_TSPfmjd8QaIaFOp-1">
          <mxGeometry relative="1" as="geometry">
            <Array as="points">
              <mxPoint x="610" y="505" />
              <mxPoint x="610" y="300" />
            </Array>
          </mxGeometry>
        </mxCell>
        <mxCell id="bVcX_TSPfmjd8QaIaFOp-76" style="edgeStyle=orthogonalEdgeStyle;rounded=0;orthogonalLoop=1;jettySize=auto;html=1;exitX=0.5;exitY=0;exitDx=0;exitDy=0;entryX=0;entryY=0;entryDx=80;entryDy=100;entryPerimeter=0;" edge="1" parent="1" source="bVcX_TSPfmjd8QaIaFOp-8" target="bVcX_TSPfmjd8QaIaFOp-24">
          <mxGeometry relative="1" as="geometry" />
        </mxCell>
        <mxCell id="bVcX_TSPfmjd8QaIaFOp-77" style="edgeStyle=orthogonalEdgeStyle;rounded=0;orthogonalLoop=1;jettySize=auto;html=1;exitX=0;exitY=0;exitDx=70;exitDy=0;exitPerimeter=0;entryX=0;entryY=0;entryDx=0;entryDy=45;entryPerimeter=0;" edge="1" parent="1" source="bVcX_TSPfmjd8QaIaFOp-4" target="bVcX_TSPfmjd8QaIaFOp-35">
          <mxGeometry relative="1" as="geometry" />
        </mxCell>
        <mxCell id="bVcX_TSPfmjd8QaIaFOp-79" style="edgeStyle=orthogonalEdgeStyle;rounded=0;orthogonalLoop=1;jettySize=auto;html=1;exitX=0;exitY=0;exitDx=80;exitDy=100;exitPerimeter=0;entryX=0;entryY=0;entryDx=0;entryDy=45;entryPerimeter=0;" edge="1" parent="1" source="bVcX_TSPfmjd8QaIaFOp-4" target="bVcX_TSPfmjd8QaIaFOp-39">
          <mxGeometry relative="1" as="geometry" />
        </mxCell>
        <mxCell id="bVcX_TSPfmjd8QaIaFOp-80" style="edgeStyle=orthogonalEdgeStyle;rounded=0;orthogonalLoop=1;jettySize=auto;html=1;exitX=0.5;exitY=1;exitDx=0;exitDy=0;entryX=0;entryY=0;entryDx=70;entryDy=0;entryPerimeter=0;" edge="1" parent="1" source="bVcX_TSPfmjd8QaIaFOp-47" target="bVcX_TSPfmjd8QaIaFOp-64">
          <mxGeometry relative="1" as="geometry" />
        </mxCell>
      </root>
    </mxGraphModel>
  </diagram>
</mxfile>
